<?xml version="1.0" encoding="utf-8"?>
<!-- Generator: Adobe Illustrator 16.0.0, SVG Export Plug-In . SVG Version: 6.00 Build 0)  -->
<!DOCTYPE svg PUBLIC "-//W3C//DTD SVG 1.1//EN" "http://www.w3.org/Graphics/SVG/1.1/DTD/svg11.dtd">
<svg version="1.1" id="Layer_1" xmlns="http://www.w3.org/2000/svg" xmlns:xlink="http://www.w3.org/1999/xlink" x="0px" y="0px"
	 width="48px" height="30.317px" viewBox="0 0 48 30.317" enable-background="new 0 0 48 30.317" xml:space="preserve">
<g>
	<path fill="#F9B43B" d="M20.475,5.926l0.494,0.482c0.582,0.569,1.246,0.883,1.869,0.883c0,0,0,0,0,0c0.555,0,1.05-0.256,1.36-0.702
		c0.25-0.359,0.204-0.811,0.155-1.048c-0.075-0.361-0.247-0.635-0.498-0.79c-0.427-0.265-0.852-0.399-1.263-0.399
		c-0.448,0-1.089,0.167-1.652,0.916c0.185-0.029,0.37-0.062,0.552-0.079c0.014,0.091,0.027,0.182,0.042,0.273
		c-0.259,0.021-0.52,0.041-0.78,0.062L20.475,5.926z"/>
	<path fill="#F9B43B" d="M12.994,9.065l-0.699-0.837l-0.605,0.908c-0.037,0.054-0.087,0.112-0.136,0.171
		c-0.243,0.292-0.61,0.734-0.387,1.289c0.173,0.429,0.431,0.801,0.659,1.129c0.079,0.114,0.158,0.227,0.233,0.342l0.342,0.448
		l1.325-0.239l0.16-0.444c0.019-0.052,0.049-0.109,0.078-0.167c0.142-0.29,0.381-0.774,0.1-1.253
		c-0.23-0.394-0.516-0.716-0.792-1.028C13.178,9.279,13.084,9.173,12.994,9.065z"/>
	<path fill="#F9B43B" d="M31.183,10.282l2.492-2.583l-0.654-0.563c-0.055-0.048-0.119-0.113-0.184-0.176
		c-0.295-0.291-0.55-0.541-0.949-0.541l-0.238,0.003l-0.191,0.113c-0.535,0.314-0.982,0.715-1.385,1.099
		c-0.557,0.527-0.113,1.083,0.21,1.488c0.097,0.122,0.21,0.263,0.323,0.41L31.183,10.282z"/>
	<path fill="#F9B43B" d="M16.737,8.547c0.315,0,0.521-0.147,0.861-0.392c0.122-0.087,0.269-0.193,0.436-0.302l0.986-0.647
		l-1.403-1.027c-0.309-0.229-0.572-0.423-0.838-0.599c-0.361-0.012-0.723-0.033-1.084-0.101c0.311,0,0.622,0.004,0.933,0.005
		c-0.068-0.042-0.135-0.085-0.205-0.126l-0.2-0.113h-0.219c-0.404,0-0.64,0.251-0.913,0.543c-0.055,0.058-0.109,0.118-0.155,0.162
		L14.33,6.525L15.196,7.4c0.076,0.078,0.157,0.157,0.235,0.236c0.182-0.143,0.458-0.196,0.838-0.154
		c-0.206,0.125-0.301,0.359-0.419,0.557c0.116,0.107,0.229,0.216,0.353,0.318l0.242,0.19H16.737L16.737,8.547z"/>
	<path fill="#F9B43B" d="M6.683,12.869c-0.062,0.327-0.124,0.659-0.197,0.995l-0.35,1.597h4.374l0.22,0.533l0.102-0.533H28.01
		c-0.071,0.114-0.127,0.251-0.151,0.44c0.08,0.081,0.159,0.162,0.238,0.246c0.164-0.221,0.333-0.447,0.512-0.686h15.08l-0.114-1.772
		c-0.013-0.262-0.027-0.479-0.054-0.694c-0.437-3.416-2.178-6.204-5.325-8.523c-3.564-2.625-8.234-4.07-13.149-4.07
		c-1.776,0-3.563,0.2-5.313,0.594l-0.582,0.157l0.113,0.256c-0.094,0.134-0.17,0.305-0.159,0.505c0.01,0.18,0.083,0.318,0.174,0.425
		l-0.053,0.021l0.108,0.43c0.018,0.069,0.042,0.141,0.068,0.213c0.005,0.016,0.012,0.035,0.019,0.054
		c-0.063-0.118-0.125-0.236-0.186-0.35c-0.083,0.021-0.167,0.044-0.25,0.065c0.009,0.197-0.011,0.41-0.005,0.609
		c0.154-0.045,0.313-0.08,0.47-0.119l0.007,0.506l0.608-0.145c2.134-0.509,4.332-0.687,6.481-0.54l-0.813,0.767l1.225,1.255
		c0.315,0.33,0.643,0.671,1.038,1l0.382,0.3h0.466c0.463,0,0.771-0.212,1.154-0.474c0.115-0.079,0.252-0.172,0.406-0.269
		l1.632-1.016L30.98,3.855c2.099,0.605,4.022,1.534,5.653,2.735c0.16,0.118,0.304,0.24,0.454,0.36
		c-0.555,0.152-1.062,0.897-1.065,0.905l-0.234,0.448l0.268,0.407c0.268,0.403,0.568,0.764,0.859,1.113l0.741,0.899l0.048-0.039
		c-0.192-0.484-0.326-1.001-0.691-1.389c-0.103-0.11-0.038-0.377-0.051-0.571c0.065-0.017,0.132-0.034,0.197-0.051
		c0.381,0.5,0.761,1.001,1.15,1.514l1.051-0.864c0.742,1.066,1.233,2.228,1.47,3.506h-5.209c0.072-0.056,0.143-0.112,0.208-0.166
		c0.076-0.062,0.151-0.126,0.227-0.176l0.931-0.611l-2.454-1.999l-2.379,2.061l0.992,0.573c0.089,0.052,0.178,0.116,0.268,0.179
		c0.063,0.045,0.133,0.092,0.203,0.139h-7.494l1.725-2.227l-1.203-1.258c-0.006,0.087-0.025,0.184-0.061,0.294
		c-0.059,0.187,0.255,0.502,0.415,0.746c0.089,0.137,0.216,0.249,0.419,0.477c-0.878-0.263-0.936-0.307-1.246-0.976
		c-0.193-0.416-0.376-0.838-0.562-1.258L25.188,9.27c-0.051,0.078-0.117,0.156-0.182,0.234c-0.246,0.301-0.583,0.713-0.545,1.253
		c0.037,0.516,0.355,0.891,0.612,1.192c0.069,0.083,0.142,0.164,0.198,0.247l0.441,0.633h-6.942l0.864-0.85
		c0.323-0.313,0.658-0.637,0.963-1.005c0.428-0.517,0.068-1.023-0.194-1.393c-0.088-0.125-0.195-0.274-0.306-0.445l-0.644-0.993
		l-0.699,0.955c-0.123,0.167-0.237,0.321-0.343,0.463c-0.327,0.437-0.584,0.783-0.811,1.176c-0.343,0.596,0.133,1.057,0.418,1.332
		c0.057,0.055,0.114,0.109,0.156,0.156l0.552,0.604h-9.36c0.103-0.527,0.214-1.026,0.374-1.48c0.704-1.993,2.073-3.627,4.309-5.145
		c0.655-0.444,1.36-0.847,2.111-1.207l0.01-0.001l-0.003-0.003c0.771-0.369,1.591-0.692,2.453-0.968l0.422-0.135l-0.495-2.6
		l-0.534,0.166c-2.018,0.624-3.849,1.488-5.442,2.57c-0.71,0.482-1.381,1.011-1.994,1.572l-0.202,0.253l0.055,0.276
		c0.004,0.059,0.012,0.114,0.021,0.166L10.14,6.019C8.951,7.202,8.096,8.479,7.506,9.888c-0.474,0.136-0.948,0.273-1.423,0.409
		c0.034,0.1,0.066,0.2,0.1,0.299c0.396-0.13,0.793-0.261,1.19-0.392c-0.035,0.091-0.081,0.177-0.113,0.27
		C6.983,11.26,6.833,12.063,6.683,12.869z M25.316,11.924c0.099-0.485,1.085-1.1,1.519-0.943c0.096,0.034,0.176,0.342,0.133,0.485
		c-0.154,0.505-0.691,0.831-1.484,0.875C25.438,12.236,25.288,12.062,25.316,11.924z"/>
	<polygon fill="#F9B43B" points="18.757,1.756 18.748,1.759 18.75,1.763 	"/>
	<path fill="#F9B43B" d="M43.872,29.581c0.189,0.301,0.301,0.479,0.463,0.736c0.242-0.171,0.476-0.297,0.643-0.482
		c0.053-0.059-0.082-0.405-0.12-0.404C44.565,29.444,44.274,29.51,43.872,29.581z"/>
	<path fill="#F9B43B" d="M44.658,20.23c-0.769-0.087-1.122,0.218-1.101,0.876C44.285,21.256,44.222,20.497,44.658,20.23z"/>
	<path fill="#F9B43B" d="M34.474,23.045c0.032,0.1,0.066,0.199,0.099,0.298c0.534-0.176,1.068-0.352,1.603-0.528
		c-0.027-0.08-0.054-0.158-0.08-0.237C35.554,22.732,35.013,22.889,34.474,23.045z"/>
	<path fill="#F9B43B" d="M35.953,17.323c-0.173,0.074-0.309,0.236-0.454,0.356c0.17,0.069,0.34,0.187,0.517,0.198
		c0.146,0.009,0.331-0.076,0.437-0.182c0.059-0.059,0.025-0.332-0.03-0.355C36.283,17.284,36.087,17.265,35.953,17.323z"/>
	<path fill="#F9B43B" d="M27.376,21.204c-0.19,0.455-0.338,0.805-0.493,1.176c0.676,0.088,0.566-0.543,0.772-0.861
		C27.677,21.483,27.464,21.3,27.376,21.204z"/>
	<path fill="#F9B43B" d="M29.559,10.574c0.022,0.192,0.144,0.394,0.276,0.545c0.07,0.08,0.254,0.059,0.387,0.083
		c0.014-0.162,0.013-0.326,0.045-0.483c0.047-0.224,0.117-0.442,0.184-0.68c-0.206,0-0.463,0-0.711,0
		C29.667,10.234,29.54,10.413,29.559,10.574z"/>
	<path fill="#F9B43B" d="M27.397,8.156c0.125-0.54,0.25-1.08,0.392-1.692C27.196,6.725,26.974,7.509,27.397,8.156z"/>
	<path fill="#F9B43B" d="M15.946,10.429c0.242-0.172,0.476-0.297,0.643-0.483c0.053-0.059-0.082-0.406-0.12-0.404
		c-0.292,0.013-0.583,0.08-0.985,0.15C15.672,9.993,15.784,10.171,15.946,10.429z"/>
	<path fill="#F9B43B" d="M29.089,8.827c-0.488-0.455-0.678-0.467-1.246-0.099c0.094,0.181,0.174,0.33,0.268,0.51
		C28.427,9.105,28.743,8.972,29.089,8.827z"/>
	<path fill="#F9B43B" d="M0,11.548c0.004,0.059,0.008,0.119,0.013,0.178c0.25,0.167,0.501,0.332,0.95,0.629
		c-0.035-0.377-0.011-0.775-0.087-0.794C0.602,11.487,0.294,11.542,0,11.548z"/>
	<path fill="#F9B43B" d="M9.129,16.17c-0.018-0.016-0.033-0.03-0.051-0.047c-0.002,0.018,0,0.031-0.002,0.047
		C9.094,16.17,9.112,16.17,9.129,16.17z"/>
	<path fill="#F9B43B" d="M1.665,11.694c0.416,0.248,0.875,0.128,1.324,0.099c0.009-0.082,0.018-0.165,0.027-0.247
		c-0.442-0.029-0.885-0.056-1.327-0.084C1.681,11.541,1.673,11.617,1.665,11.694z"/>
	<path fill="#F9B43B" d="M28.691,17.926c0-0.423,0-0.846,0-1.268c-0.078,0.003-0.156,0.006-0.235,0.011
		c0.031,0.429,0.063,0.856,0.094,1.285C28.597,17.945,28.645,17.936,28.691,17.926z"/>
	<path fill="#F9B43B" d="M9.933,1.098C9.615,0.732,9.296,0.366,8.978,0C8.931,0.045,8.883,0.091,8.835,0.136
		c0.331,0.355,0.661,0.711,0.992,1.067C9.862,1.168,9.897,1.134,9.933,1.098z"/>
	<path fill="#F9B43B" d="M46.571,4.442c0,0.226,0,0.451,0,0.676c0.441,0.094,0.885,0.188,1.326,0.282
		C47.932,5.296,47.966,5.193,48,5.09C47.523,4.874,47.048,4.658,46.571,4.442z"/>
	<path fill="#F9B43B" d="M43.439,19.361l-0.075-1.169h-1.171c-0.299,0-0.599,0.01-0.973,0.021c-0.601,0.019-1.198,0.024-1.649-0.029
		c-0.527-0.063-1.008-0.093-1.469-0.093c-0.421,0-0.82,0.033-1.207,0.086h-7.406c-0.137-0.006-0.27-0.009-0.397-0.009l-1.567,0.009
		h-0.071l-1.64,0.01v0.002h-0.35c-1.891,0.008-3.956,0.011-6.364,0.011L6.766,18.192l-0.051,1.195
		c-0.108,2.549,0.884,5.131,2.723,7.084c1.844,1.958,4.374,3.107,6.941,3.152c3.168,0.057,6.348,0.084,9.449,0.084
		c2.593,0,5.21-0.02,7.778-0.059c2.682-0.04,5.315-1.249,7.225-3.316c1.311-1.418,2.185-3.176,2.492-4.994l0.043,0.039l0.082-1.008
		l-0.013,0.001C43.458,19.999,43.459,19.667,43.439,19.361z M26.031,18.768c0.062,0.164,0.095,0.317,0.126,0.472
		c-0.059-0.157-0.123-0.315-0.209-0.471c-0.031-0.058-0.047-0.11-0.051-0.169l-0.01-0.219L26.031,18.768z M38.997,24.638
		c-1.447,1.567-3.426,2.483-5.429,2.514c-5.604,0.085-11.427,0.077-17.145-0.025c-1.899-0.034-3.783-0.896-5.167-2.367
		c-1.085-1.153-1.781-2.583-1.987-4.069l9.831,0.006c2.408,0,4.464-0.004,6.353-0.012v0.002l0.477-0.003
		c0.057-0.001,0.118-0.001,0.176-0.001l0.959,0.006l-0.01-0.012l2.107-0.012c0.25,0,0.469,0.02,0.773,0.07h2.367h1.199h3.194
		l0.095-0.011c0.641-0.144,1.363-0.166,2.197-0.087l0.631,0.056c0.381,0.028,0.824,0.038,1.285,0.027
		C40.714,22.125,40.047,23.5,38.997,24.638z"/>
</g>
</svg>
