<?xml version="1.0" encoding="utf-8"?>
<!-- Generator: Adobe Illustrator 16.0.0, SVG Export Plug-In . SVG Version: 6.00 Build 0)  -->
<!DOCTYPE svg PUBLIC "-//W3C//DTD SVG 1.1//EN" "http://www.w3.org/Graphics/SVG/1.1/DTD/svg11.dtd">
<svg version="1.1" id="Layer_1" xmlns="http://www.w3.org/2000/svg" xmlns:xlink="http://www.w3.org/1999/xlink" x="0px" y="0px"
	 width="45.748px" height="44.625px" viewBox="0 0 45.748 44.625" enable-background="new 0 0 45.748 44.625" xml:space="preserve">
<g>
	<g>
		<path fill-rule="evenodd" clip-rule="evenodd" fill="#FFFFFF" d="M8.502,31.551c-0.005-0.227-0.009-0.484-0.015-0.742
			c0.044-0.023,0.088-0.045,0.133-0.068c0.069,0.152,0.167,0.297,0.201,0.457c0.05,0.23,0.127,0.496,0.056,0.701
			c-0.055,0.162-0.314,0.254-0.496,0.387c-0.348-0.66-0.842-0.865-1.437-0.65c-0.105,0.039-0.175,0.189-0.252,0.295
			c-0.241,0.33-0.48,0.662-0.714,0.998c-0.109,0.156-0.204,0.32-0.335,0.529c-0.415-0.328-0.825-0.654-1.236-0.979
			c0.023-0.045,0.046-0.09,0.069-0.133c0.183,0.094,0.375,0.17,0.546,0.283c0.227,0.15,0.415,0.223,0.581-0.08
			c0.031-0.057,0.154-0.063,0.236-0.09c0.083-0.029,0.226-0.045,0.237-0.09c0.023-0.104,0.003-0.232-0.04-0.334
			c-0.079-0.189-0.187-0.367-0.283-0.549c0.051-0.023,0.102-0.049,0.152-0.072c0.084,0.143,0.169,0.287,0.345,0.584
			c-0.078-0.893,0.632-0.66,0.975-0.922C7.851,30.594,7.861,31.693,8.502,31.551z"/>
		<path fill-rule="evenodd" clip-rule="evenodd" fill="#FFFFFF" d="M16.007,37.963c-0.75-0.012-1.312,0.143-1.558,0.879
			c-0.103,0.307-0.503,0.301-0.704,0.014c-0.105-0.154-0.203-0.314-0.353-0.545c-0.094,0.248-0.148,0.391-0.242,0.641
			c-0.057-0.154-0.112-0.229-0.094-0.264c0.211-0.414,0.335-0.816-0.062-1.197c0.119-0.121,0.22-0.287,0.364-0.348
			c0.099-0.041,0.259,0.064,0.424,0.113c0.004,0.09,0.01,0.193,0.015,0.295c0.033,0.592,0.359,0.785,0.878,0.518
			c0.224-0.115,0.449-0.24,0.652-0.389C15.691,37.412,15.876,37.539,16.007,37.963z"/>
		<path fill-rule="evenodd" clip-rule="evenodd" fill="#FFFFFF" d="M17.395,21.903c-0.091,0.901-0.292,1.669-0.899,2.27
			c-0.074,0.073-0.274,0.073-0.385,0.03c-0.059-0.023-0.095-0.225-0.069-0.325c0.095-0.362,0.266-0.71,0.326-1.075
			C16.46,22.23,16.982,22.217,17.395,21.903z"/>
		<path fill-rule="evenodd" clip-rule="evenodd" fill="#FFFFFF" d="M22.163,30.629c-0.577,0.775-0.577,0.775-0.4,0.992
			c-0.256,0.152-0.623,0.371-0.988,0.588c0.015-0.127,0.03-0.254,0.044-0.379c-0.169-0.328-0.339-0.656-0.509-0.982
			c0.533,0.305,0.883,0.223,1.176-0.309C21.734,30.09,21.971,30.338,22.163,30.629z"/>
		<path fill-rule="evenodd" clip-rule="evenodd" fill="#FFFFFF" d="M20.667,40.943c-0.27-0.041-0.447-0.068-0.676-0.102
			c-0.019,0.078-0.049,0.199-0.117,0.48c-0.345-0.408-0.628-0.74-0.913-1.076C19.673,39.783,19.942,39.879,20.667,40.943z"/>
		<path fill-rule="evenodd" clip-rule="evenodd" fill="#FFFFFF" d="M24.867,31.467c0.313-0.396,0.596-0.754,0.878-1.109
			c0.054,0.041,0.108,0.082,0.162,0.121c-0.086,0.109-0.202,0.207-0.251,0.33c-0.068,0.176-0.143,0.381-0.116,0.557
			c0.054,0.352-0.396,1.168-0.733,1.227c-0.063,0.012-0.152-0.01-0.198-0.051c-0.038-0.033-0.056-0.127-0.038-0.18
			C24.67,32.035,24.785,31.711,24.867,31.467z"/>
		<path fill-rule="evenodd" clip-rule="evenodd" fill="#FFFFFF" d="M23.006,32.898c0.396-0.1,0.793-0.199,1.241-0.313
			c0.067,0.129-0.488,0.473,0.044,0.674c-0.439-0.08-0.878-0.162-1.318-0.242C22.985,32.977,22.996,32.938,23.006,32.898z"/>
		<path fill-rule="evenodd" clip-rule="evenodd" fill="#FFFFFF" d="M13.699,31.629c-0.15-0.457-0.234-0.713-0.317-0.969
			c0.03-0.043,0.06-0.088,0.09-0.133c0.21,0.16,0.456,0.293,0.607,0.496C14.121,31.08,13.883,31.346,13.699,31.629z"/>
		<path fill-rule="evenodd" clip-rule="evenodd" fill="#FFFFFF" d="M18.435,33.029c0.466,0.189,0.933,0.381,1.399,0.57
			c-0.026,0.072-0.052,0.143-0.078,0.213c-0.473-0.172-0.945-0.346-1.417-0.52C18.372,33.205,18.403,33.117,18.435,33.029z"/>
		<path fill-rule="evenodd" clip-rule="evenodd" fill="#FFFFFF" d="M17.017,43.357c0.435,0.342,0.806,0.637,1.257,0.994
			C17.438,44.225,17.009,43.895,17.017,43.357z"/>
		<path fill-rule="evenodd" clip-rule="evenodd" fill="#FFFFFF" d="M19.689,37.084c0.444,0.242,0.375,0.605-0.315,1.201
			c0.055-0.191,0.114-0.385,0.165-0.578C19.592,37.502,19.639,37.295,19.689,37.084z"/>
		<path fill-rule="evenodd" clip-rule="evenodd" fill="#FFFFFF" d="M15.994,44.625c-0.127-0.264-0.226-0.447-0.302-0.639
			c-0.035-0.084-0.068-0.227-0.026-0.27c0.058-0.061,0.261-0.092,0.274-0.068c0.116,0.215,0.229,0.439,0.283,0.674
			C16.239,44.4,16.08,44.518,15.994,44.625z"/>
		<path fill-rule="evenodd" clip-rule="evenodd" fill="#FFFFFF" d="M17.326,39.959c-0.298-0.303-0.588-0.607-0.023-1.18
			c0.074,0.465,0.128,0.809,0.184,1.152C17.432,39.941,17.379,39.949,17.326,39.959z"/>
		<path fill-rule="evenodd" clip-rule="evenodd" fill="#FFFFFF" d="M14.704,31.406c0.295,0.266,0.589,0.529,0.884,0.795
			c-0.052,0.053-0.104,0.105-0.155,0.158c-0.332-0.229-0.72-0.4-0.875-0.805C14.607,31.506,14.655,31.455,14.704,31.406z"/>
		<path fill-rule="evenodd" clip-rule="evenodd" fill="#FFFFFF" d="M13.478,28.348c0.315-0.174,0.612-0.338,0.999-0.552
			c0.008,0.116,0.056,0.364,0.022,0.375C14.176,28.281,13.903,28.785,13.478,28.348z"/>
		<path fill-rule="evenodd" clip-rule="evenodd" fill="#FFFFFF" d="M13.128,39.658c-0.044,0.549-0.087,1.098-0.13,1.648
			c-0.063-0.004-0.127-0.01-0.19-0.016c0.04-0.543,0.08-1.088,0.121-1.631C12.996,39.658,13.062,39.658,13.128,39.658z"/>
		<path fill-rule="evenodd" clip-rule="evenodd" fill="#FFFFFF" d="M26.183,27.408c0.021,0.434,0.04,0.867,0.061,1.301
			c-0.045,0.006-0.089,0.01-0.133,0.016c-0.035-0.434-0.07-0.867-0.104-1.299C26.066,27.42,26.125,27.414,26.183,27.408z"/>
	</g>
	<path fill-rule="evenodd" clip-rule="evenodd" fill="#FFFFFF" d="M18.652,6.31c-0.299,0.024-0.6,0.048-0.901,0.071l-0.323,0.465
		l0.57,0.557c0.673,0.658,1.439,1.02,2.16,1.02c0,0,0,0,0,0c0.641,0,1.213-0.295,1.571-0.811c0.288-0.416,0.236-0.938,0.179-1.211
		c-0.087-0.418-0.285-0.733-0.575-0.913c-0.493-0.306-0.984-0.461-1.459-0.461c-0.518,0-1.258,0.193-1.909,1.059
		c0.213-0.034,0.428-0.071,0.638-0.091C18.62,6.1,18.636,6.204,18.652,6.31z"/>
	<path fill-rule="evenodd" clip-rule="evenodd" fill="#FFFFFF" d="M8.786,10.472L7.979,9.504l-0.7,1.049
		c-0.042,0.063-0.101,0.129-0.157,0.198C6.841,11.089,6.417,11.6,6.674,12.24c0.2,0.496,0.498,0.925,0.762,1.304
		c0.091,0.132,0.183,0.263,0.269,0.396L8.1,14.457l1.531-0.275l0.185-0.514c0.021-0.06,0.057-0.125,0.09-0.192
		c0.165-0.335,0.44-0.894,0.115-1.447c-0.266-0.454-0.596-0.827-0.915-1.188C8.999,10.719,8.89,10.597,8.786,10.472z"/>
	<path fill-rule="evenodd" clip-rule="evenodd" fill="#FFFFFF" d="M29.132,11.011l0.666,0.866l2.879-2.983l-0.756-0.651
		c-0.063-0.055-0.138-0.129-0.213-0.203c-0.341-0.336-0.635-0.625-1.097-0.625l-0.274,0.004l-0.221,0.131
		c-0.619,0.363-1.136,0.826-1.6,1.27c-0.643,0.609-0.131,1.25,0.242,1.719C28.871,10.678,29.001,10.841,29.132,11.011z"/>
	<path fill-rule="evenodd" clip-rule="evenodd" fill="#FFFFFF" d="M14.593,13.941c0.065,0.064,0.131,0.127,0.181,0.181l0.661,0.725
		l1.025-1.009c0.374-0.361,0.76-0.735,1.112-1.16c0.494-0.598,0.079-1.182-0.225-1.609c-0.102-0.144-0.225-0.316-0.354-0.515
		L16.25,9.406l-0.807,1.104c-0.142,0.193-0.273,0.371-0.396,0.535c-0.377,0.505-0.675,0.904-0.937,1.359
		C13.713,13.092,14.264,13.624,14.593,13.941z"/>
	<path fill-rule="evenodd" clip-rule="evenodd" fill="#FFFFFF" d="M12.983,6.334c-0.078-0.049-0.156-0.098-0.236-0.145l-0.231-0.131
		h-0.253c-0.467,0-0.739,0.291-1.054,0.627c-0.063,0.068-0.126,0.137-0.18,0.188l-0.7,0.664l1.001,1.011
		c0.088,0.091,0.182,0.183,0.272,0.273c0.21-0.165,0.53-0.227,0.968-0.178c-0.237,0.146-0.348,0.415-0.484,0.644
		c0.134,0.123,0.265,0.248,0.408,0.367l0.279,0.219h0.337c0,0,0,0,0,0c0.364,0,0.602-0.17,0.995-0.452
		c0.141-0.101,0.311-0.224,0.503-0.35l1.139-0.747l-1.621-1.186c-0.357-0.266-0.661-0.49-0.968-0.693
		c-0.417-0.014-0.835-0.037-1.252-0.116C12.265,6.329,12.625,6.334,12.983,6.334z"/>
	<path fill-rule="evenodd" clip-rule="evenodd" fill="#FFFFFF" d="M22.971,14.09l0.733,1.051l2.239-2.893l-1.389-1.453
		c-0.008,0.1-0.03,0.212-0.07,0.339c-0.068,0.216,0.294,0.581,0.479,0.861c0.103,0.158,0.248,0.287,0.483,0.551
		c-1.015-0.304-1.081-0.354-1.439-1.128c-0.224-0.48-0.434-0.967-0.648-1.452l-0.486,0.743c-0.059,0.09-0.135,0.18-0.209,0.271
		c-0.285,0.348-0.674,0.823-0.63,1.448c0.042,0.596,0.411,1.029,0.708,1.377C22.822,13.9,22.904,13.994,22.971,14.09z
		 M24.776,12.685c0.11,0.04,0.202,0.396,0.152,0.56c-0.177,0.584-0.797,0.96-1.715,1.012c-0.052-0.121-0.224-0.322-0.192-0.481
		C23.135,13.213,24.274,12.504,24.776,12.685z"/>
	<path fill-rule="evenodd" clip-rule="evenodd" fill="#FFFFFF" d="M32.065,14.454c0.104,0.06,0.206,0.134,0.31,0.206
		c0.36,0.255,0.809,0.572,1.445,0.598c0.581,0,1.006-0.348,1.346-0.629c0.088-0.071,0.175-0.146,0.262-0.203l1.075-0.705
		l-2.835-2.31l-2.748,2.38L32.065,14.454z"/>
	<path fill-rule="evenodd" clip-rule="evenodd" fill="#FFFFFF" d="M17.044,2.939c-0.084,0.032-0.217,0.082-0.373,0.141
		c0.044,0.177,0.147,0.375,0.149,0.545c1.888-0.451,3.869-0.699,5.889-0.699c1.043,0,2.075,0.062,3.088,0.182
		c-0.216,0.115-0.396,0.305-0.591,0.512c-0.064,0.067-0.129,0.137-0.183,0.188l-0.698,0.658l0.993,1.02
		c0.358,0.375,0.729,0.762,1.154,1.115l0.282,0.224h0.34l0,0c0.355,0,0.605-0.171,0.981-0.429c0.144-0.1,0.317-0.219,0.515-0.342
		l1.171-0.729L28.14,4.105C27.716,3.783,27.367,3.518,27,3.28c3.531,0.593,6.788,1.915,9.438,3.868
		c3.064,2.257,4.755,4.932,5.171,8.176c0.002,0.024,0.006,0.049,0.008,0.074H17.251c0.204,0.1,0.238,0.354,0.159,0.852
		c-0.225-0.268-0.451-0.538-0.713-0.852H6.009c0.059,0.242,0.048,0.589-0.043,1.068c-0.099-0.239-0.193-0.48-0.297-0.718
		c-0.051-0.118-0.107-0.233-0.162-0.351H3.9c0.007-0.039,0.014-0.076,0.021-0.115c0.158-0.842,0.307-1.638,0.563-2.365
		c0.855-2.424,2.507-4.402,5.198-6.229c1.619-1.098,3.459-1.96,5.43-2.589c-0.119-0.622-0.237-1.246-0.355-1.866
		C12.531,2.923,10.451,3.89,8.625,5.13c-0.83,0.563-1.569,1.151-2.238,1.764c0.045,0.226-0.045,0.729,0.532,0.546
		c-0.51,0.271-1.02,0.539-1.529,0.809C5.368,8.201,5.348,8.15,5.328,8.103c0.186-0.242,0.375-0.487,0.569-0.74
		c-1.488,1.479-2.546,3.108-3.189,4.929c-0.305,0.865-0.475,1.77-0.638,2.646c-0.074,0.395-0.149,0.795-0.238,1.201l-0.25,1.145
		h5.971c-0.341-0.072-0.682-0.145-1.022-0.217c0-0.237,0-0.474,0-0.711c0.5,0.227,1,0.454,1.5,0.682
		c-0.027,0.082-0.054,0.164-0.081,0.246h35.681l-0.092-1.44c-0.015-0.286-0.029-0.524-0.059-0.759
		c-0.483-3.781-2.421-6.875-5.922-9.453c-4.018-2.96-9.291-4.59-14.847-4.59c-2.055,0-4.075,0.235-6.011,0.672
		c0.004,0.01,0.008,0.02,0.012,0.029C15.886,2.447,17.097,2.45,17.044,2.939z M10.413,4.688c0.235,0.215,0.449,0.41,0.687,0.627
		c-0.275,0.024-0.628,0.058-1.187,0.107C10.16,5.059,10.282,4.88,10.413,4.688z"/>
	<path fill-rule="evenodd" clip-rule="evenodd" fill="#FFFFFF" d="M15.996,3.127c-0.096,0.024-0.192,0.051-0.288,0.076
		c0.011,0.227-0.013,0.473-0.006,0.703c0.205-0.06,0.417-0.104,0.625-0.158C16.213,3.534,16.104,3.328,15.996,3.127z"/>
	<polygon fill-rule="evenodd" clip-rule="evenodd" fill="#FFFFFF" points="15.443,2.029 15.433,2.031 15.436,2.035 	"/>
	<path fill-rule="evenodd" clip-rule="evenodd" fill="#FFFFFF" d="M36.421,11.349l0.855,1.039l0.055-0.045
		c-0.222-0.56-0.377-1.157-0.798-1.604c-0.119-0.127-0.045-0.436-0.06-0.66c0.076-0.02,0.152-0.039,0.229-0.06
		c0.439,0.578,0.879,1.157,1.328,1.749l1.634-1.342l-0.995-1.021c-0.432-0.447-0.806-0.832-1.215-1.183l-0.266-0.229h-0.352
		c-0.721,0-1.443,1.072-1.449,1.082l-0.271,0.519l0.311,0.47C35.736,10.527,36.083,10.945,36.421,11.349z"/>
	<path fill-rule="evenodd" clip-rule="evenodd" fill="#FFFFFF" d="M43.208,31.662c0.081,0.074,0.158,0.146,0.236,0.217
		c0.029-0.41,0.04-0.822,0.014-1.23l-0.057-0.883h-0.885c-0.34,0-0.684,0.01-1.027,0.021c-0.326,0.01-0.652,0.02-0.979,0.02l0,0
		c-0.422,0-0.766-0.018-1.082-0.055c-0.586-0.07-1.122-0.104-1.637-0.104c-2.473,0-4.43,0.84-5.947,2.561
		c-0.239-0.275-0.465-0.545-0.668-0.82c-1.077-1.465-2.551-1.652-3.715-1.652h-0.076c-0.993,0.008-2.014,0.014-3.07,0.02
		c0.203,0.543,0.299,1.098,0.226,1.703c-0.007,0.059-0.054,0.123-0.114,0.182c1.022-0.006,2.01-0.012,2.973-0.02h0.063
		c1.143,0,1.717,0.232,2.197,0.885c0.324,0.441,0.686,0.854,1.034,1.252c0.156,0.178,0.315,0.359,0.474,0.545l0.803,0.949
		l0.697-1.029c1.261-1.859,2.842-2.689,5.125-2.689c0.336,0,0.693,0.023,1.068,0.059c0-0.439,0-0.865,0-1.281
		c0.087,0,0.174-0.004,0.262-0.004c0,0.178-0.041,0.369,0.01,0.533c0.07,0.234,0.159,0.5,0.328,0.658
		c0.043,0.039,0.083,0.094,0.12,0.158c0.286,0.021,0.584,0.037,0.931,0.037l0,0c0.346,0,0.691-0.012,1.037-0.021
		c0.01-0.002,0.021-0.002,0.031-0.002c-0.111,1.91-0.955,3.83-2.387,5.381c-1.765,1.912-4.182,3.029-6.631,3.064
		c-6.508,0.1-13.179,0.09-19.823-0.029c-2.327-0.041-4.633-1.094-6.325-2.891c-1.466-1.559-2.346-3.537-2.486-5.545l11.911,0.008
		c3.099,0,5.707-0.006,8.089-0.016c-0.036-0.041-0.067-0.082-0.083-0.119c-0.194-0.441-0.298-0.93-0.531-1.348
		c-0.083-0.148-0.115-0.285-0.122-0.414c-2.184,0.008-4.571,0.012-7.354,0.012L2.071,29.766l-0.039,0.902
		c-0.119,2.811,0.978,5.66,3.01,7.818c2.038,2.164,4.832,3.436,7.664,3.484c3.638,0.064,7.308,0.098,10.907,0.098
		c2.993,0,6.014-0.023,8.978-0.066c2.962-0.045,5.874-1.385,7.987-3.672c1.59-1.723,2.567-3.84,2.822-5.994
		c-0.191,0.018-0.416,0.037-0.691,0.063C42.956,32.035,43.078,31.855,43.208,31.662z M26.585,40.521
		c-0.006-0.068-0.01-0.137-0.016-0.205c0.341-0.008,0.696-0.07,1.012,0.014c0.088,0.023,0.061,0.482,0.102,0.918
		C27.165,40.904,26.875,40.715,26.585,40.521z M30.023,40.6c-0.518,0.033-1.049,0.172-1.529-0.115c0.01-0.09,0.02-0.178,0.028-0.268
		c0.511,0.033,1.021,0.064,1.532,0.098C30.044,40.408,30.034,40.504,30.023,40.6z"/>
	<path fill-rule="evenodd" clip-rule="evenodd" fill="#FFFFFF" d="M2.93,26.396c3.467,0.01,6.939,0.012,10.438,0.014
		c-0.075-0.14-0.145-0.279-0.207-0.42c-0.168-0.384,0.262-1.04,0.698-1.18c0.165-0.053,0.29-0.156,0.38-0.285
		c-0.601,0-1.198-0.001-1.797-0.001c0.206,0.571,0.408,1.134,0.607,1.688c-0.497-0.218-0.915-0.975-1.091-1.689
		c-3.019,0-6.024-0.004-9.022-0.012c-0.334-0.001-0.61-0.104-0.797-0.295c-0.172-0.175-0.26-0.415-0.254-0.693
		c0.015-0.785,0.689-0.953,1.252-0.955c1.915-0.01,3.832-0.013,5.747-0.014c-0.013-0.061-0.021-0.12-0.018-0.18
		c0.017-0.38,0.151-0.752,0.239-1.139c0.649,0.311,1.059,0.77,1.335,1.319l3.641,0.002c-0.039-0.231-0.076-0.462-0.099-0.696
		c0.203,0.295,0.354,0.515,0.465,0.696l1.549,0.001c0.579,0,1.158,0.004,1.738,0.008c0.583,0.004,1.167,0.008,1.75,0.008
		c1.025,0,1.862-0.013,2.634-0.039l0.103-0.002c0.129,0,0.244,0.012,0.354,0.029c-0.084-0.091-0.168-0.195-0.251-0.271
		c0.223-0.219,0.419-0.486,0.684-0.623c0.081-0.041,0.349,0.287,0.68,0.576c-0.296,0.194-0.494,0.387-0.675,0.467
		c0.188,0.098,0.363,0.234,0.546,0.436c0.428,0.472,0.869,0.912,1.347,1.377l-9.704,0.002c-0.186,0-0.368,0-0.554,0
		c-0.167,0.674-0.599,1.386-0.95,1.482c-0.084,0.084-0.167,0.167-0.251,0.25c0.066,0.051,0.135,0.102,0.202,0.152
		c0.519,0,1.033,0,1.554,0l14.343-0.002l-1.646-1.615c-0.371-0.364-0.721-0.699-1.053-1.018c-0.712-0.684-1.325-1.272-1.893-1.896
		c-0.03-0.033-0.063-0.063-0.095-0.096c-0.021,0.125-0.244,0.239-0.375,0.359c-0.156-0.177-0.389-0.336-0.44-0.539
		c-0.018-0.071,0.088-0.178,0.235-0.325c-0.598-0.425-1.267-0.63-2.058-0.63l-0.168,0.002c-0.75,0.026-1.566,0.039-2.569,0.039
		c-0.58,0-1.159-0.005-1.738-0.008c-0.583-0.004-1.167-0.008-1.77-0.008L9.049,20.67c-0.121,0-0.241,0-0.361,0
		c0.044,0.098,0.107,0.236,0.214,0.47c-0.675-0.135-1.229-0.247-1.785-0.356c0.013-0.041,0.028-0.071,0.042-0.109
		c-0.945,0.002-1.891,0.003-2.836,0.007c0.416,0.382,0.734,0.676,1.05,0.966c-0.047,0.052-0.093,0.104-0.14,0.156
		c-0.534-0.067-1.057-0.148-0.971-1.122c-0.378,0.001-0.756,0.001-1.134,0.003c-0.319,0.001-0.612,0.047-0.893,0.113
		c0.021,0.014,0.042,0.024,0.063,0.039c-0.768,0.59-1.213,1.195-0.873,2.14c0.142,0.393-0.269,0.706-0.702,0.574
		c-0.208-0.062-0.417-0.138-0.703-0.235C0.015,23.373,0.001,23.427,0,23.486c0,0.01,0.002,0.02,0.002,0.029
		c0.064,0.201,0.117,0.367,0.194,0.609c-0.061-0.037-0.11-0.063-0.154-0.085c0.095,0.569,0.351,1.088,0.75,1.495
		C1.332,26.088,2.091,26.395,2.93,26.396z"/>
	<path fill-rule="evenodd" clip-rule="evenodd" fill="#FFFFFF" d="M44.005,22.292c-0.275-0.465-1.227-0.737-2.1-0.759
		c-0.086,0.234-0.27,0.437-0.506,0.51c-0.238,0.074-0.481,0.133-0.848,0.232c0.076-0.209,0.143-0.398,0.207-0.579
		c-0.118,0.048-0.221,0.104-0.3,0.174c-1.174,1.034-2.284,2.14-3.419,3.218c0.11,0.127,0.221,0.254,0.33,0.381
		c1.725,0.006,3.457,0.1,5.166-0.059c0.649-0.061,1.474-0.633,1.781-1.205C44.568,23.742,44.326,22.83,44.005,22.292z"/>
	<path fill-rule="evenodd" clip-rule="evenodd" fill="#FFFFFF" d="M35.312,32.168c0.194-0.514,0.391-1.027,0.527-1.389
		c-0.352-0.076-0.352-0.076-0.389-1.322c-0.428-0.141-0.866-0.203-0.757,0.451c0.13,0.771-0.159,1.135-0.944,1.252
		c0.435,0.197,0.869,0.393,1.303,0.588C35.138,31.889,35.225,32.027,35.312,32.168z"/>
	<path fill-rule="evenodd" clip-rule="evenodd" fill="#FFFFFF" d="M45.734,34.465c0.061-0.066-0.094-0.469-0.139-0.467
		c-0.338,0.016-0.673,0.092-1.139,0.174c0.219,0.348,0.348,0.553,0.535,0.852C45.271,34.824,45.541,34.68,45.734,34.465z"/>
	<path fill-rule="evenodd" clip-rule="evenodd" fill="#FFFFFF" d="M45.365,31.619c-0.888-0.1-1.295,0.252-1.271,1.014
		C44.935,32.807,44.861,31.928,45.365,31.619z"/>
	<path fill-rule="evenodd" clip-rule="evenodd" fill="#FFFFFF" d="M39.714,30.416c-0.7,0.221-0.415-0.572-0.586-0.646
		c-0.362,0.471-0.684,0.891-1.006,1.309c0.021,0.047,0.041,0.098,0.063,0.146C38.695,30.953,39.205,30.686,39.714,30.416z"/>
	<path fill-rule="evenodd" clip-rule="evenodd" fill="#FFFFFF" d="M35.564,34.605c-0.03-0.092-0.061-0.182-0.092-0.273
		c-0.625,0.178-1.249,0.359-1.873,0.539c0.038,0.115,0.076,0.23,0.115,0.346C34.331,35.014,34.948,34.811,35.564,34.605z"/>
	<path fill-rule="evenodd" clip-rule="evenodd" fill="#FFFFFF" d="M38.118,37.973c0.116,0.254,0.236,0.5,0.347,0.752
		c0.104,0.236,0.197,0.479,0.297,0.719C38.982,38.287,38.76,37.861,38.118,37.973z"/>
	<path fill-rule="evenodd" clip-rule="evenodd" fill="#FFFFFF" d="M35.309,20.012c-0.2,0.085-0.356,0.273-0.524,0.411
		c0.195,0.081,0.393,0.216,0.597,0.229c0.169,0.011,0.382-0.087,0.505-0.21c0.066-0.066,0.029-0.383-0.035-0.409
		C35.691,19.967,35.464,19.945,35.309,20.012z"/>
	<path fill-rule="evenodd" clip-rule="evenodd" fill="#FFFFFF" d="M25.722,33.107c0.025-0.041-0.221-0.252-0.322-0.363
		c-0.219,0.525-0.389,0.93-0.569,1.359C25.611,34.205,25.486,33.477,25.722,33.107z"/>
	<path fill-rule="evenodd" clip-rule="evenodd" fill="#FFFFFF" d="M28.689,12.939c0.016-0.186,0.014-0.376,0.051-0.558
		c0.054-0.258,0.137-0.511,0.212-0.786c-0.237,0-0.534,0-0.82,0c-0.083,0.227-0.231,0.433-0.21,0.619
		c0.027,0.223,0.166,0.455,0.319,0.629C28.322,12.937,28.535,12.912,28.689,12.939z"/>
	<path fill-rule="evenodd" clip-rule="evenodd" fill="#FFFFFF" d="M25.878,7.467c-0.686,0.302-0.943,1.207-0.453,1.955
		C25.57,8.799,25.714,8.175,25.878,7.467z"/>
	<path fill-rule="evenodd" clip-rule="evenodd" fill="#FFFFFF" d="M12.938,11.49c0.061-0.068-0.094-0.469-0.139-0.467
		c-0.338,0.015-0.673,0.092-1.138,0.173c0.218,0.347,0.347,0.554,0.535,0.852C12.475,11.85,12.746,11.704,12.938,11.49z"/>
	<path fill-rule="evenodd" clip-rule="evenodd" fill="#FFFFFF" d="M27.379,10.196c-0.563-0.525-0.782-0.539-1.44-0.114
		c0.109,0.209,0.201,0.381,0.31,0.589C26.614,10.518,26.98,10.364,27.379,10.196z"/>
	<path fill-rule="evenodd" clip-rule="evenodd" fill="#FFFFFF" d="M2.769,11.631c-0.031-0.092-0.062-0.184-0.092-0.275
		c-0.625,0.18-1.25,0.361-1.874,0.54c0.039,0.116,0.077,0.231,0.115,0.345C1.535,12.038,2.152,11.834,2.769,11.631z"/>
	<path fill-rule="evenodd" clip-rule="evenodd" fill="#FFFFFF" d="M4.262,18.625c-0.002,0.021,0,0.035-0.002,0.056
		c0.021,0,0.041,0,0.062,0C4.301,18.662,4.284,18.645,4.262,18.625z"/>
	<path fill-rule="evenodd" clip-rule="evenodd" fill="#FFFFFF" d="M25.958,18.369c0.092,0.094,0.184,0.188,0.275,0.283
		c0.254-0.342,0.51-0.684,0.806-1.08C26.354,17.446,26.042,17.709,25.958,18.369z"/>
	<path fill-rule="evenodd" clip-rule="evenodd" fill="#FFFFFF" d="M22.148,22.068c0.177-0.432,0.063-0.792-0.505-1.041
		c0.099,0.364,0.198,0.73,0.297,1.094C22.009,22.104,22.079,22.086,22.148,22.068z"/>
	<path fill-rule="evenodd" clip-rule="evenodd" fill="#FFFFFF" d="M26.92,20.708c0-0.488,0-0.977,0-1.464
		c-0.091,0.004-0.181,0.008-0.271,0.012c0.036,0.495,0.071,0.99,0.107,1.485C26.81,20.73,26.866,20.719,26.92,20.708z"/>
	<path fill-rule="evenodd" clip-rule="evenodd" fill="#FFFFFF" d="M4.147,0c-0.055,0.052-0.11,0.104-0.165,0.156
		c0.382,0.412,0.764,0.822,1.146,1.234C5.168,1.349,5.208,1.309,5.25,1.268C4.882,0.846,4.515,0.422,4.147,0z"/>
</g>
</svg>
