<?xml version="1.0" encoding="utf-8"?>
<!-- Generator: Adobe Illustrator 16.0.0, SVG Export Plug-In . SVG Version: 6.00 Build 0)  -->
<!DOCTYPE svg PUBLIC "-//W3C//DTD SVG 1.1//EN" "http://www.w3.org/Graphics/SVG/1.1/DTD/svg11.dtd">
<svg version="1.1" id="Layer_1" xmlns="http://www.w3.org/2000/svg" xmlns:xlink="http://www.w3.org/1999/xlink" x="0px" y="0px"
	 width="38.126px" height="34.138px" viewBox="0 0 38.126 34.138" enable-background="new 0 0 38.126 34.138" xml:space="preserve">
<g>
	<path fill="#F9B43B" d="M1.425,4.438C1.6,4.169,1.779,3.901,1.96,3.636C2.018,3.55,2.069,3.43,2.151,3.396
		C2.613,3.21,3.006,3.358,3.298,3.869c0.139-0.108,0.34-0.189,0.38-0.317c0.05-0.163-0.018-0.37-0.063-0.55
		C3.583,2.877,3.502,2.766,3.444,2.647C3.41,2.667,3.375,2.686,3.341,2.705C3.353,2.907,3.363,3.11,3.373,3.288
		c-0.501,0.131-0.538-0.734-1.019-0.34C2.093,3.164,1.528,3.001,1.613,3.7C1.467,3.472,1.396,3.36,1.326,3.25
		C1.287,3.271,1.248,3.291,1.208,3.312c0.081,0.141,0.17,0.277,0.238,0.425c0.037,0.079,0.055,0.178,0.039,0.261
		C1.479,4.033,1.366,4.049,1.302,4.073c-0.063,0.025-0.16,0.033-0.183,0.078c-0.124,0.241-0.273,0.19-0.456,0.077
		c-0.136-0.084-0.29-0.14-0.436-0.208C0.21,4.057,0.194,4.092,0.177,4.127C0.508,4.373,0.84,4.616,1.175,4.864
		C1.273,4.696,1.344,4.564,1.425,4.438z"/>
	<path fill="#F9B43B" d="M15.785,3.683c-0.35,0.1-0.659,0.189-0.967,0.277c-0.008,0.032-0.015,0.063-0.023,0.095
		c0.348,0.052,0.695,0.104,1.043,0.156C15.414,4.066,15.84,3.78,15.785,3.683z"/>
	<path fill="#F9B43B" d="M7.745,2.725C7.621,2.568,7.423,2.471,7.254,2.352C7.231,2.387,7.209,2.423,7.187,2.458
		c0.072,0.199,0.146,0.397,0.275,0.753C7.599,2.983,7.779,2.768,7.745,2.725z"/>
	<path fill="#F9B43B" d="M12.218,7.835c-0.035,0.154-0.075,0.307-0.114,0.46c0.526-0.486,0.571-0.775,0.216-0.953
		C12.286,7.507,12.255,7.674,12.218,7.835z"/>
	<path fill="#F9B43B" d="M7.999,0.47c0.026-0.011-0.017-0.204-0.027-0.294C7.673,0.354,7.444,0.49,7.2,0.637
		C7.547,0.968,7.749,0.565,7.999,0.47z"/>
	<path fill="#F9B43B" d="M13.892,27.467c0.376,0.123,0.752,0.247,1.128,0.37c0.019-0.056,0.038-0.112,0.055-0.169
		c-0.371-0.137-0.743-0.273-1.115-0.412C13.938,27.326,13.915,27.396,13.892,27.467z"/>
	<path fill="#F9B43B" d="M13.273,32.736c0.042-0.007,0.084-0.016,0.125-0.024c-0.052-0.27-0.104-0.54-0.174-0.902
		C12.795,32.274,13.031,32.507,13.273,32.736z"/>
	<path fill="#F9B43B" d="M9.755,33.905c0.05,0.004,0.1,0.005,0.15,0.007c0.02-0.434,0.04-0.867,0.06-1.301
		c-0.053,0.003-0.105,0.005-0.157,0.007C9.79,33.048,9.772,33.477,9.755,33.905z"/>
	<path fill="#F9B43B" d="M29.435,9.618c-0.015,0.03,0.031,0.087,0.08,0.205c0.067-0.196,0.106-0.311,0.174-0.509
		c0.123,0.179,0.205,0.301,0.293,0.419c0.165,0.22,0.48,0.215,0.552-0.028c0.175-0.588,0.612-0.724,1.202-0.733
		c-0.113-0.332-0.263-0.426-0.541-0.205c-0.155,0.121-0.328,0.226-0.502,0.323c-0.401,0.225-0.662,0.081-0.705-0.384
		c-0.007-0.08-0.014-0.161-0.02-0.23c-0.131-0.035-0.26-0.115-0.337-0.078c-0.112,0.052-0.187,0.184-0.278,0.282
		C29.676,8.968,29.589,9.289,29.435,9.618z"/>
	<path fill="#F9B43B" d="M35.847,2.985c-0.217,0.427-0.488,0.499-0.917,0.273c0.143,0.254,0.284,0.507,0.427,0.759
		c-0.008,0.102-0.017,0.2-0.024,0.301c0.281-0.182,0.563-0.362,0.761-0.49c-0.145-0.165-0.145-0.165,0.289-0.789
		C36.222,2.813,36.031,2.624,35.847,2.985z"/>
	<path fill="#F9B43B" d="M38.074,4.522c-0.35,0.1-0.658,0.189-0.967,0.277c-0.008,0.032-0.016,0.063-0.023,0.095
		c0.348,0.052,0.695,0.104,1.043,0.156C37.703,4.906,38.129,4.62,38.074,4.522z"/>
	<path fill="#F9B43B" d="M30.034,3.564c-0.124-0.156-0.321-0.253-0.491-0.373c-0.022,0.034-0.045,0.071-0.066,0.105
		c0.072,0.2,0.145,0.398,0.275,0.754C29.888,3.823,30.068,3.607,30.034,3.564z"/>
	<path fill="#F9B43B" d="M34.628,5.438c-0.371-0.138-0.743-0.274-1.114-0.412c-0.022,0.07-0.046,0.141-0.069,0.211
		c0.377,0.123,0.753,0.247,1.129,0.37C34.592,5.55,34.611,5.493,34.628,5.438z"/>
	<path fill="#F9B43B" d="M34.507,8.675c-0.035,0.154-0.076,0.307-0.114,0.46c0.526-0.486,0.571-0.775,0.216-0.953
		C34.576,8.347,34.544,8.514,34.507,8.675z"/>
	<path fill="#F9B43B" d="M32.827,10.505c0.042-0.007,0.083-0.016,0.125-0.024c-0.053-0.269-0.104-0.539-0.175-0.902
		C32.348,10.044,32.583,10.276,32.827,10.505z"/>
	<path fill="#F9B43B" d="M31.134,4.579c0.039-0.042,0.078-0.086,0.118-0.129c-0.239-0.199-0.478-0.401-0.716-0.602
		C30.5,3.89,30.462,3.93,30.425,3.97C30.558,4.283,30.868,4.408,31.134,4.579z"/>
	<path fill="#F9B43B" d="M30.288,1.31c0.026-0.01-0.017-0.204-0.026-0.294c-0.299,0.177-0.528,0.314-0.771,0.461
		C29.835,1.809,30.038,1.405,30.288,1.31z"/>
	<path fill="#F9B43B" d="M17.718,27.996l0.09-0.001c2.33-0.051,4.185-1.984,4.134-4.311c-0.049-2.28-1.943-4.136-4.223-4.136
		l-0.09,0.001c-1.122,0.024-2.172,0.491-2.958,1.313c-0.783,0.819-1.2,1.885-1.174,2.999C13.552,26.142,15.445,27.996,17.718,27.996
		z M17.719,21.972c0.958,0,1.766,0.779,1.8,1.735c0.035,0.985-0.736,1.821-1.717,1.864c-0.026,0.001-0.052,0.002-0.077,0.002
		c-0.337,0-0.652-0.1-0.923-0.264c0.01-0.015,0.017-0.025,0.027-0.04c-0.114-0.162-0.247-0.298-0.38-0.231
		c-0.317-0.319-0.519-0.753-0.528-1.232c-0.019-0.984,0.767-1.807,1.75-1.833L17.719,21.972z"/>
	<path fill="#F9B43B" d="M8.959,27.135l0.086-0.001c0.744-0.021,1.41-0.312,1.935-0.762c0.156,0.193,0.39,0.304,0.601,0.438
		c0.04-0.043,0.079-0.086,0.118-0.13c-0.183-0.152-0.365-0.306-0.547-0.458c0.593-0.589,0.957-1.405,0.931-2.304
		c-0.047-1.675-1.45-3.038-3.126-3.038l-0.088,0.001c-0.827,0.023-1.601,0.373-2.178,0.984c-0.577,0.611-0.882,1.404-0.859,2.231
		C5.88,25.772,7.283,27.135,8.959,27.135z M8.958,23.193v0.124c0.438,0,0.69,0.25,0.692,0.686c0.002,0.438-0.249,0.691-0.699,0.696
		c-0.4,0-0.636-0.231-0.702-0.689c0.06-0.459,0.297-0.692,0.705-0.692L8.958,23.193L8.958,23.193z"/>
	<path fill="#F9B43B" d="M26.691,23.919l0.063-0.001c0.758-0.017,1.469-0.334,2-0.893c0.53-0.56,0.811-1.284,0.789-2.042
		c-0.045-1.56-1.377-2.822-2.951-2.769c-1.542,0.054-2.777,1.353-2.753,2.896C23.863,22.659,25.142,23.919,26.691,23.919z
		 M26.302,21.051c-0.01-0.07,0.105-0.213,0.227-0.364c0.053-0.064,0.109-0.136,0.167-0.213c0.054,0.076,0.106,0.145,0.154,0.208
		c0.13,0.171,0.233,0.306,0.229,0.402c-0.003,0.106-0.254,0.36-0.334,0.369C26.574,21.423,26.322,21.194,26.302,21.051z"/>
	<path fill="#F9B43B" d="M35.343,27.38c-0.235-0.027-0.471-0.055-0.707-0.071c-1.23-0.083-2.194-1.053-2.24-2.255
		c-0.048-1.236,0.861-2.283,2.113-2.436c0.218-0.026,0.435-0.063,0.65-0.1c0.118-0.021,0.235-0.041,0.354-0.06l0.108-0.017
		l-0.177-6.606L35.396,15.8c-0.061-0.047-0.123-0.092-0.187-0.138c-0.138-0.099-0.268-0.192-0.384-0.303
		c-1.392-1.317-2.789-2.631-4.186-3.944l-1.783-1.679l-0.702,1.844l-0.415-0.674l-2.158-0.972l0.537,0.509
		c0.728,0.688,1.454,1.379,2.18,2.068c0.682,0.646,1.361,1.293,2.042,1.938c0.094,0.09,0.183,0.184,0.292,0.298l0.01,0.011
		l-3.958-0.549c-4.08-0.567-8.298-1.153-12.449-1.712c-0.65-0.087-0.962-0.236-0.977-0.852c-0.004-0.235-0.116-0.466-0.227-0.695
		c-0.801-1.667-2.157-2.586-3.92-2.657C8.958,8.286,8.813,8.296,8.666,8.302c0.209-0.12,0.473-0.165,0.781-0.17
		C9.333,7.8,9.184,7.707,8.906,7.927C8.75,8.049,8.578,8.152,8.404,8.25C8.002,8.476,7.741,8.331,7.699,7.866
		c-0.007-0.08-0.013-0.161-0.02-0.23c-0.131-0.035-0.26-0.115-0.337-0.078C7.23,7.609,7.155,7.741,7.064,7.84
		c0.263,0.234,0.25,0.492,0.154,0.757c-0.917,0.368-1.68,1.063-2.273,2.081c-0.13,0.225-0.325,0.416-0.427,0.419l-0.072,0.001
		c-0.272,0-0.55-0.052-0.873-0.111c-0.088-0.017-0.179-0.033-0.272-0.05c0.107-0.13,0.209-0.256,0.31-0.379
		c0.288-0.354,0.561-0.689,0.848-0.999c1.978-2.134,4.257-3.82,6.878-5.103c0.316,0.104,0.632,0.207,0.947,0.311
		c0.019-0.057,0.037-0.112,0.055-0.169c-0.248-0.091-0.495-0.183-0.742-0.274c1.62-0.769,3.371-1.385,5.265-1.853
		c0.52-0.127,0.8-0.057,1.16,0.287c1.873,1.788,3.752,3.568,5.632,5.349l1.828,1.732l0.068-0.018
		c0.979-0.262,1.469-0.799,1.539-1.69l0.006-0.06L27.051,8.03c-1.161-1.099-2.2-2.088-3.163-3.013
		c0.12-0.181,0.239-0.362,0.361-0.542c0.058-0.086,0.108-0.206,0.191-0.239c0.461-0.187,0.854-0.038,1.147,0.473
		c0.139-0.108,0.34-0.189,0.379-0.318c0.051-0.162-0.018-0.369-0.063-0.549c-0.031-0.125-0.112-0.235-0.171-0.354
		c-0.034,0.019-0.068,0.038-0.103,0.056c0.012,0.203,0.021,0.406,0.031,0.583c-0.5,0.132-0.537-0.733-1.018-0.339
		c-0.262,0.216-0.826,0.052-0.741,0.752c-0.146-0.229-0.217-0.34-0.288-0.45c-0.039,0.021-0.078,0.041-0.117,0.062
		c0.081,0.141,0.17,0.277,0.238,0.425c0.037,0.078,0.055,0.178,0.039,0.261c-0.002,0.012-0.026,0.02-0.046,0.027
		c-1.286-1.235-2.435-2.354-3.525-3.432C19.188,0.428,18.293,0,17.21,0c-0.462,0-0.966,0.081-1.543,0.246
		c-2.669,0.767-5.05,1.758-7.161,2.98C8.42,3.154,8.333,3.082,8.247,3.009C8.21,3.05,8.173,3.09,8.136,3.13
		c0.039,0.093,0.097,0.166,0.161,0.231c-3.38,2.003-6.063,4.61-8.096,7.884c-0.022,0.036-0.06,0.07-0.099,0.107
		c-0.022,0.021-0.045,0.042-0.066,0.064L0,11.454l0.466,17.339l-0.001-0.001l0.018,0.621l0.562,0.071L0.66,29.025l0.078-0.17
		c0.086,0.041,0.173,0.08,0.26,0.119c0.281,0.127,0.546,0.246,0.763,0.424l0.272,0.22l1.048,0.138
		c1.313,0.172,2.627,0.344,3.939,0.525c0.992,0.138,1.984,0.276,2.977,0.414c-0.069,0.063-0.131,0.144-0.197,0.216
		c0.323,0.288,0.236,0.608,0.081,0.938c-0.014,0.029,0.032,0.087,0.081,0.204c0.067-0.195,0.106-0.311,0.173-0.508
		c0.124,0.179,0.205,0.3,0.293,0.418c0.165,0.221,0.48,0.215,0.552-0.027c0.175-0.589,0.612-0.724,1.202-0.734
		c-0.032-0.095-0.069-0.164-0.11-0.218c4.518,0.627,9.035,1.255,13.551,1.885l0.101,0.014l0.051-0.14
		c0.077-0.211,0.157-0.43,0.218-0.651c0.211-0.775,0.512-0.865,0.72-0.865c0.21,0,0.477,0.104,0.811,0.316
		c-0.535,0.425-0.944,0.827-1.247,1.229l-0.129,0.17l3.557,0.495c1.047,0.146,2.111,0.313,3.139,0.476
		c0.48,0.075,0.96,0.15,1.439,0.225l0.012,0.001h0.011c0.503-0.013,1.005-0.025,1.507-0.04l0.125-0.004l-0.18-6.667L35.343,27.38z
		 M6.35,26.073c-0.031-0.125-0.112-0.236-0.171-0.354c-0.034,0.02-0.068,0.038-0.102,0.057c0.011,0.203,0.021,0.406,0.031,0.583
		C5.607,26.489,5.57,25.624,5.09,26.02c-0.262,0.216-0.826,0.052-0.741,0.752c-0.146-0.229-0.217-0.34-0.288-0.45
		c-0.039,0.02-0.078,0.04-0.117,0.062c0.081,0.141,0.17,0.276,0.238,0.424c0.036,0.079,0.055,0.178,0.039,0.262
		c-0.007,0.036-0.12,0.051-0.184,0.076c-0.063,0.024-0.16,0.032-0.183,0.078c-0.048,0.094-0.101,0.134-0.157,0.152
		c-0.071-0.01-0.142-0.02-0.213-0.029c-0.028-0.015-0.056-0.027-0.086-0.046c-0.136-0.084-0.289-0.14-0.435-0.208
		c-0.017,0.035-0.034,0.07-0.051,0.106c0.038,0.027,0.075,0.056,0.113,0.083c-0.045-0.006-0.09-0.013-0.135-0.019L2.514,13.298
		c0.128,0.017,0.255,0.034,0.38,0.052c0.411,0.058,0.8,0.111,1.196,0.146c0.298,0.027,0.421,0.139,0.524,0.478
		c0.565,1.872,1.863,2.994,3.752,3.247c1.792,0.235,3.303-0.475,4.331-2.034c0.244-0.37,0.417-0.438,0.796-0.382
		c3.601,0.515,7.265,1.022,10.808,1.514l3.017,0.419l0.027,0.004l1.084-0.314l0.163,0.488l0.271,0.038
		c0.91,0.126,1.819,0.253,2.74,0.382l1.452,0.204l0.019,0.617c0.021,0.731,0.043,1.423,0.039,2.12
		c-0.001,0.073-0.135,0.241-0.265,0.305c-1.956,0.964-2.916,2.486-2.854,4.526c0.061,2.013,1.092,3.464,3.066,4.313
		c0.15,0.065,0.299,0.212,0.305,0.278c0.041,0.454,0.049,0.915,0.058,1.402c0.003,0.136,0.005,0.273,0.009,0.414l-1.566-0.218
		l-13.219-1.84c-4.821-0.671-9.632-1.341-14.442-2.011c0.162-0.248,0.326-0.494,0.492-0.739c0.058-0.086,0.108-0.205,0.191-0.238
		c0.461-0.187,0.855-0.038,1.147,0.472c0.139-0.108,0.34-0.189,0.38-0.317C6.463,26.46,6.396,26.253,6.35,26.073z M31.861,31.381
		l1.971,1.814l-0.16,0.177c-0.984-0.123-1.895-0.271-1.813-1.963L31.861,31.381z M9.058,14.845
		c-0.262,0.017-0.525-0.021-0.783-0.108l-0.121-0.041l-0.038,0.121c-0.183,0.578-0.443,0.92-1.133,0.886l0.578-1.379l-0.062-0.06
		c-0.387-0.369-0.614-0.858-0.64-1.377c-0.028-0.56,0.164-1.096,0.541-1.511c0.374-0.411,0.883-0.65,1.435-0.675
		c0.031-0.001,0.061-0.002,0.091-0.002c1.124,0,2.037,0.876,2.078,1.994C11.044,13.814,10.172,14.779,9.058,14.845z M7.4,8.476
		c0.013,0.019,0.021,0.031,0.034,0.049C7.415,8.53,7.396,8.535,7.377,8.541C7.385,8.519,7.391,8.501,7.4,8.476z M11.642,30.998
		c-0.155,0.121-0.329,0.225-0.502,0.322c-0.402,0.226-0.663,0.081-0.706-0.384c-0.005-0.063-0.01-0.124-0.016-0.183
		c0.442,0.062,0.884,0.123,1.326,0.185C11.71,30.957,11.68,30.968,11.642,30.998z"/>
</g>
</svg>
