<?xml version="1.0" encoding="utf-8"?>
<!-- Generator: Adobe Illustrator 16.0.0, SVG Export Plug-In . SVG Version: 6.00 Build 0)  -->
<!DOCTYPE svg PUBLIC "-//W3C//DTD SVG 1.1//EN" "http://www.w3.org/Graphics/SVG/1.1/DTD/svg11.dtd">
<svg version="1.1" id="Layer_1" xmlns="http://www.w3.org/2000/svg" xmlns:xlink="http://www.w3.org/1999/xlink" x="0px" y="0px"
	 width="42px" height="37.754px" viewBox="0 0 42 37.754" enable-background="new 0 0 42 37.754" xml:space="preserve">
<g>
	<path fill-rule="evenodd" clip-rule="evenodd" fill="#8BC03F" d="M1.784,16.222c0.452-0.292,0.909-0.578,1.367-0.861
		c0.146-0.091,0.306-0.24,0.454-0.234c0.832,0.032,1.333,0.529,1.428,1.508c0.286-0.072,0.649-0.056,0.798-0.226
		c0.188-0.213,0.226-0.575,0.28-0.881c0.037-0.212-0.01-0.438-0.018-0.658c-0.066,0.005-0.13,0.01-0.195,0.016
		c-0.123,0.317-0.246,0.635-0.353,0.912c-0.855-0.144-0.319-1.49-1.321-1.215c-0.548,0.15-1.297-0.487-1.648,0.64
		c-0.066-0.45-0.098-0.667-0.13-0.885c-0.073,0.004-0.147,0.009-0.221,0.013c0.026,0.271,0.07,0.541,0.072,0.811
		c0.002,0.145-0.039,0.311-0.119,0.427c-0.034,0.05-0.217-0.003-0.333-0.009c-0.113-0.005-0.266-0.06-0.332-0.006
		c-0.354,0.284-0.547,0.103-0.75-0.194c-0.15-0.221-0.347-0.412-0.522-0.615c-0.051,0.043-0.101,0.085-0.15,0.128
		c0.338,0.601,0.678,1.201,1.02,1.808C1.375,16.511,1.574,16.357,1.784,16.222z"/>
	<path fill-rule="evenodd" clip-rule="evenodd" fill="#8BC03F" d="M9.167,27.649c0.667-0.776,1.429-0.684,2.338-0.298
		c0.052-0.583-0.111-0.829-0.687-0.683c-0.322,0.081-0.656,0.119-0.988,0.148c-0.376,0.035-0.638-0.047-0.779-0.223
		c0.103-0.137,0.141-0.299,0.113-0.492c-0.02-0.133-0.076-0.248-0.147-0.354c0.043-0.127,0.089-0.255,0.128-0.365
		c-0.177-0.143-0.32-0.352-0.462-0.351c-0.207,0.003-0.412,0.155-0.617,0.243c0.015,0.035,0.022,0.066,0.034,0.099
		c-0.196,0.065-0.398,0.124-0.516,0.258c-0.396,0.448-0.758,0.938-1.064,1.452c-0.187,0.314-0.05,0.648,0.258,0.868
		c0.294,0.21,0.694,0.175,0.942-0.103c0.18-0.203,0.313-0.448,0.485-0.66c0.018-0.021,0.042-0.041,0.062-0.062
		c0.012,0.062,0.024,0.126,0.037,0.185C8.405,27.764,8.89,27.973,9.167,27.649z"/>
	<path fill-rule="evenodd" clip-rule="evenodd" fill="#8BC03F" d="M22.661,21.474c-0.09-0.453-0.254-0.871-0.78-0.447
		c-0.622,0.503-1.088,0.429-1.587-0.209c0.044,0.483,0.088,0.967,0.132,1.451c-0.081,0.146-0.162,0.293-0.243,0.439
		c0.554-0.082,1.108-0.167,1.498-0.227C21.571,22.132,21.571,22.132,22.661,21.474z"/>
	<path fill-rule="evenodd" clip-rule="evenodd" fill="#8BC03F" d="M18.342,23.937c-0.474-0.465-0.947-0.928-1.421-1.393
		c-0.082,0.092-0.165,0.184-0.248,0.275c0.49,0.446,0.979,0.893,1.469,1.338C18.208,24.084,18.275,24.011,18.342,23.937z"/>
	<path fill-rule="evenodd" clip-rule="evenodd" fill="#8BC03F" d="M16.432,28.114c-0.165,0.23-0.325,0.46-0.493,0.684
		c-0.158,0.211-0.325,0.416-0.488,0.623C16.587,29.038,16.853,28.629,16.432,28.114z"/>
	<path fill-rule="evenodd" clip-rule="evenodd" fill="#8BC03F" d="M35.872,23.229c-0.58-0.075-0.832,0.081-0.708,0.661
		c0.069,0.323,0.095,0.66,0.113,0.992c0.042,0.769-0.368,1.055-1.097,0.773c-0.126-0.049-0.252-0.099-0.362-0.143
		c-0.149,0.172-0.363,0.307-0.366,0.449c-0.006,0.206,0.139,0.416,0.22,0.626c0.671-0.271,1.088,0.097,1.468,0.573
		c0.033,0.043,0.152,0.017,0.369,0.031c-0.248-0.247-0.391-0.39-0.637-0.637c0.357-0.055,0.603-0.086,0.845-0.131
		c0.453-0.084,0.679-0.561,0.367-0.85C35.333,24.88,35.453,24.122,35.872,23.229z"/>
	<path fill-rule="evenodd" clip-rule="evenodd" fill="#8BC03F" d="M41.489,20.009c0.165-0.256,0.293-0.455,0.488-0.755
		c-1.67,0.292-1.932,0.562-1.762,1.668c0.556-0.159,1.109-0.317,1.785-0.513C41.702,20.175,41.573,20.073,41.489,20.009z"/>
	<path fill-rule="evenodd" clip-rule="evenodd" fill="#8BC03F" d="M26.498,21.778c-0.325,0.071-0.618,0.295-0.923,0.461
		c0.036,0.06,0.072,0.119,0.109,0.18c0.354,0.038,0.705,0.076,1.335,0.145C26.778,22.188,26.588,21.759,26.498,21.778z"/>
	<path fill-rule="evenodd" clip-rule="evenodd" fill="#8BC03F" d="M36.817,18.333c0.223,0.173,0.447,0.342,0.664,0.518
		c0.205,0.166,0.404,0.34,0.605,0.511C37.745,18.212,37.346,17.932,36.817,18.333z"/>
	<path fill-rule="evenodd" clip-rule="evenodd" fill="#8BC03F" d="M38.983,22.729c0.019-0.069,0.037-0.138,0.055-0.206
		c-0.443-0.121-0.886-0.242-1.482-0.406C37.936,23.104,38.458,22.923,38.983,22.729z"/>
	<path fill-rule="evenodd" clip-rule="evenodd" fill="#8BC03F" d="M35.303,6.644c-0.313-0.777-0.545-1.586-0.835-2.372
		c-1.395-3.774-4.777-4.657-7.499-4.135c-3.033,0.582-5.194,2.406-6.804,4.964c-0.37,0.587-0.739,1.175-1.129,1.748
		c-0.126,0.186-0.303,0.344-0.48,0.485c-0.505,0.397-0.734,0.916-0.58,1.528c0.103,0.409-0.006,0.699-0.245,0.994
		c-0.674,0.832-1.511,1.472-2.405,2.042c-0.099,0.063-0.243,0.081-0.364,0.076c-0.98-0.038-1.495,0.443-1.7,1.405
		c-0.136,0.638-0.354,1.294-0.694,1.844c-0.876,1.414-2.025,2.596-3.401,3.546c-0.112,0.078-0.252,0.153-0.384,0.161
		c-1.131,0.073-1.523,0.432-1.688,1.561c-0.166,1.133-0.617,2.099-1.594,2.768c-0.454,0.311-0.89,0.646-1.329,0.978
		c-0.219,0.165-0.426,0.213-0.715,0.144c-0.856-0.203-1.698,0.322-1.777,1.145c-0.104,1.084-0.495,2.072-0.848,3.082
		c-0.352,1.006-0.637,2.034-0.799,2.556c-0.281,3.134,1.25,5.524,3.691,6.261c0.684,0.207,1.42,0.324,2.133,0.33
		c1.472,0.013,2.945-0.123,4.417-0.113c1.39,0.009,2.496-0.402,3.16-1.699c0.053-0.104,0.175-0.195,0.285-0.243
		c0.796-0.343,1.594-0.686,2.399-1.007c0.814-0.324,1.643-0.505,2.541-0.362c0.897,0.143,1.592-0.491,1.682-1.403
		c0.019-0.19,0.115-0.442,0.26-0.54c0.712-0.482,1.44-0.94,2.167-1.399c0.006,0.277,0.133,0.533,0.652,0.717
		c-0.451,0.05-0.669,0.074-0.888,0.098c0.001,0.074,0.003,0.147,0.005,0.222c0.271-0.017,0.543-0.051,0.813-0.042
		c0.145,0.003,0.309,0.05,0.421,0.135c0.049,0.035-0.011,0.217-0.021,0.332c-0.009,0.113-0.068,0.264-0.019,0.331
		c0.271,0.364,0.083,0.55-0.222,0.741c-0.227,0.143-0.424,0.332-0.635,0.5c0.042,0.053,0.082,0.104,0.123,0.156
		c0.613-0.316,1.225-0.634,1.844-0.953c-0.178-0.271-0.324-0.475-0.452-0.69c-0.274-0.462-0.544-0.931-0.81-1.398
		c-0.085-0.149-0.229-0.313-0.217-0.462c0.002-0.031,0.016-0.053,0.02-0.084c0.092-0.057,0.18-0.119,0.271-0.176
		c0.211-0.129,0.49-0.182,0.743-0.205c0.763-0.07,1.303-0.48,1.425-1.221c0.114-0.684,0.465-1.207,0.938-1.67
		c0.813-0.792,1.764-1.35,2.862-1.652c0.792-0.218,1.276-0.852,1.149-1.602c-0.144-0.846,0.084-1.563,0.553-2.25
		c0.553-0.811,1.074-1.645,1.631-2.454c0.078-0.114,0.264-0.199,0.41-0.213c1.079-0.107,1.662-1.026,1.35-2.055
		c-0.121-0.396-0.189-0.873-0.089-1.263c0.423-1.635,0.985-3.237,0.962-4.961c-0.001-0.137,0.145-0.304,0.266-0.409
		c0.635-0.552,0.736-1.308,0.32-2.028C35.844,7.855,35.549,7.256,35.303,6.644z M29.841,18.748
		c-0.056,0.083-0.118,0.163-0.175,0.241c-0.671-0.292-0.82-0.219-1.309,0.287c-0.301,0.311-0.693,0.561-1.087,0.749
		c-0.503,0.238-0.745,0.554-0.603,0.984c0.121,0.369,0.437,0.527,0.85,0.47c0.226-0.011,0.433-0.071,0.624-0.171
		c-0.13,0.604-0.247,1.201-0.401,1.787c-0.025,0.1-0.215,0.167-0.34,0.227c-0.295,0.142-0.575,0.304-0.854,0.465
		c0.083-0.127,0.183-0.248,0.284-0.355c0.121-0.127,0.311-0.187,0.471-0.277c-0.046-0.076-0.092-0.152-0.137-0.229
		c-0.522,0.295-1.045,0.59-1.623,0.916c-0.223,0.258-0.521,0.594-0.809,0.943c-0.047,0.057-0.071,0.178-0.041,0.237
		c0.018,0.035,0.05,0.069,0.087,0.097c-0.48,0.471-0.917,0.988-1.254,1.613c-0.289,0.533-0.651,0.821-1.19,1.061
		c-1.778,0.785-3.381,1.832-4.625,3.364c-0.072,0.089-0.208,0.163-0.322,0.176c-0.756,0.083-1.475,0.289-2.179,0.544
		c-0.259-0.349-0.615-0.389-1.238-0.27c0.072,0.22,0.145,0.443,0.219,0.67c-0.011,0.004-0.022,0.008-0.033,0.013
		c-0.611,0.261-1.227,0.513-1.843,0.763c-0.635,0.257-1.053,0.74-1.407,1.303c-0.079,0.125-0.24,0.275-0.37,0.281
		c-1.5,0.072-3.002,0.123-4.504,0.165c-0.302,0.008-0.605-0.044-0.907-0.077c-1.736-0.191-2.364-1.715-2.153-2.912
		c0.126-0.719,0.39-1.415,0.616-2.115c0.218-0.673,0.456-1.34,0.706-2.002c0.048-0.129,0.172-0.266,0.296-0.323
		c1.491-0.694,2.818-1.644,3.883-2.871c0.579-0.665,0.871-1.577,1.304-2.371c0.09-0.165,0.2-0.351,0.352-0.446
		c1.078-0.682,2.055-1.452,2.921-2.32c0.074,0.171,0.169,0.333,0.278,0.489c-0.158,0.259-0.267,0.534-0.284,0.798
		c-0.026,0.391,0.213,0.718,0.583,0.801c0.354,0.079,0.742-0.119,0.848-0.505c0.121-0.436,0.366-0.69,0.793-0.825
		c0.411-0.129,0.597-0.498,0.5-0.887c-0.089-0.357-0.428-0.576-0.832-0.538c-0.483,0.045-0.995,0.383-1.367,0.821
		c-0.074-0.153-0.148-0.306-0.222-0.459c1.072-1.139,1.957-2.444,2.594-3.969c0.052-0.125,0.191-0.241,0.318-0.307
		c0.425-0.222,0.828-0.473,1.217-0.738c0.057,0.198,0.167,0.378,0.396,0.53c0.407,0.27,0.73,0.663,1.113,0.974
		c0.107,0.086,0.368,0.152,0.428,0.094c0.1-0.098,0.19-0.295,0.176-0.428c0.31-0.063,0.531-0.322,0.587-0.743
		c0.059-0.451,0.292-0.765,0.673-1c0.436-0.271,0.546-0.687,0.306-1.067c-0.221-0.349-0.651-0.437-1.07-0.198
		c-0.732,0.417-1.151,1.038-1.31,1.712c-0.156-0.16-0.331-0.308-0.515-0.45c0.646-0.522,1.239-1.11,1.777-1.764
		c0.563-0.685,0.939-1.454,0.996-2.357c0.007-0.12,0.07-0.246,0.138-0.351c0.492-0.765,1.007-1.517,1.484-2.291
		c0.912-1.482,2.1-2.651,3.719-3.331c1.104-0.463,2.234-0.561,3.385-0.149c0.796,0.287,1.369,0.821,1.694,1.584
		c0.328,0.769,0.586,1.568,0.88,2.352c0.092,0.245,0.208,0.486,0.315,0.728c-0.043-0.041-0.09-0.08-0.13-0.121
		c-0.122-0.125-0.176-0.318-0.26-0.48c-0.077,0.043-0.155,0.085-0.233,0.128c0.274,0.533,0.55,1.065,0.855,1.655
		c0.015,0.013,0.033,0.031,0.048,0.044c-0.033,0.461-0.205,0.935-0.294,1.401c-0.029,0.156-0.043,0.316-0.047,0.475
		c-0.009,0.28-0.058,0.492-0.343,0.669c-0.172,0.106-0.234,0.432-0.287,0.671c-0.051,0.227-0.057,0.412-0.367,0.426
		c-0.203,0.008-0.36,0.064-0.492,0.142c-0.146-0.062-0.287-0.311-0.69-1.037c-0.455,0.073-0.88,0.222-0.476,0.764
		c0.48,0.64,0.389,1.103-0.268,1.578c0.48-0.026,0.96-0.051,1.44-0.077c0.06,0.04,0.118,0.078,0.19,0.104
		c0.085,0.051,0.17,0.103,0.256,0.154c-0.004-0.032-0.008-0.063-0.012-0.095c0.023,0.003,0.04,0.013,0.063,0.015
		c0.083,0.007,0.165,0.014,0.234,0.02c-0.095,0.721-0.187,1.417-0.282,2.114c-0.007,0.052-0.035,0.119-0.076,0.147
		C30.702,17.131,30.347,17.997,29.841,18.748z"/>
	<path fill-rule="evenodd" clip-rule="evenodd" fill="#8BC03F" d="M25.425,18.493c-0.417-0.093-0.765,0.109-0.895,0.546
		c-0.149,0.503-0.312,0.948-0.871,1.188c-0.108,0.047-0.194,0.12-0.263,0.209c-0.018-0.236-0.115-0.491-0.094-0.709
		c0.004-0.047-0.318-0.124-0.462-0.178c0.046,0.58,0.082,1.025,0.12,1.499c0.134-0.048,0.219-0.11,0.286-0.176
		c-0.018,0.204,0.015,0.419,0.124,0.601c0.231,0.385,0.681,0.525,1.041,0.272c0.854-0.597,1.354-1.436,1.565-2.367
		C26.02,18.896,25.797,18.577,25.425,18.493z"/>
	<path fill-rule="evenodd" clip-rule="evenodd" fill="#8BC03F" d="M13.72,28.936c-0.343-0.161-0.715-0.045-0.937,0.296
		c-0.092,0.142-0.167,0.244-0.236,0.318c0.041-0.174,0.083-0.355,0.131-0.558c-0.438,0.188-0.63,0.396-0.699,0.613
		c-0.072-0.028-0.136-0.052-0.231-0.097c-0.354-0.169-0.751-0.07-0.958,0.237c-0.212,0.313-0.184,0.739,0.138,0.97
		c0.307,0.219,0.671,0.359,1.011,0.533c0.951,0.011,1.871-0.535,2.156-1.328C14.246,29.503,14.098,29.115,13.72,28.936z"/>
	<path fill-rule="evenodd" clip-rule="evenodd" fill="#8BC03F" d="M19.779,24.052c-0.279-0.014-0.549,0.137-0.671,0.469
		c-0.147,0.406-0.458,0.616-0.824,0.771c-0.172,0.074-0.364,0.105-0.527,0.192c-0.324,0.174-0.487,0.446-0.394,0.823
		c0.091,0.37,0.339,0.566,0.716,0.572c0.926,0.014,2.196-0.98,2.423-1.889C20.618,24.532,20.319,24.101,19.779,24.052z"/>
	<path fill-rule="evenodd" clip-rule="evenodd" fill="#8BC03F" d="M29.429,9.933c0.026,0.271-0.013,0.547-0.012,0.821
		c0.001,0.425,0.272,0.733,0.668,0.77c0.376,0.036,0.69-0.197,0.786-0.592c0.031-0.125,0.042-0.256,0.063-0.384
		c0.014-0.002,0.027-0.005,0.042-0.007c-0.06-0.485-0.052-0.992-0.202-1.447c-0.105-0.323-0.377-0.641-0.658-0.847
		c-0.331-0.242-0.815-0.084-1.037,0.231c-0.228,0.326-0.165,0.663,0.147,1.011C29.332,9.606,29.414,9.778,29.429,9.933z"/>
	<path fill-rule="evenodd" clip-rule="evenodd" fill="#8BC03F" d="M29.198,14.375c-0.371,0.087-0.611,0.437-0.529,0.863
		c0.071,0.376-0.035,0.556-0.416,0.645c-0.412,0.096-0.624,0.476-0.539,0.854c0.09,0.406,0.439,0.641,0.872,0.585
		c0.849-0.111,1.548-0.862,1.619-1.855c-0.02-0.103-0.039-0.334-0.107-0.55C29.959,14.48,29.604,14.278,29.198,14.375z"/>
	<path fill-rule="evenodd" clip-rule="evenodd" fill="#8BC03F" d="M23.373,8.601c0.079-0.033,0.263-0.078,0.409-0.177
		c0.427-0.285,0.833-0.598,1.256-0.887c0.313-0.212,0.442-0.565,0.31-0.903c-0.132-0.334-0.495-0.555-0.837-0.454
		c-0.756,0.223-1.386,0.655-1.828,1.31C22.368,7.954,22.704,8.555,23.373,8.601z"/>
	<path fill-rule="evenodd" clip-rule="evenodd" fill="#8BC03F" d="M23.79,23.2c-0.313-0.13-0.678-0.088-0.811,0.202
		c-0.229,0.496-0.619,0.795-1.01,1.128c-0.255,0.218-0.27,0.539-0.105,0.834c0.163,0.291,0.422,0.437,0.761,0.382
		c0.26-0.042,0.521-0.179,0.76-0.366c0.188,0.121,0.375,0.24,0.562,0.36c-0.548-0.509,0.3-0.654,0.282-0.843
		c-0.119-0.018-0.225-0.032-0.339-0.049c0.198-0.284,0.335-0.604,0.364-0.913C24.259,23.608,24.12,23.336,23.79,23.2z"/>
	<path fill-rule="evenodd" clip-rule="evenodd" fill="#8BC03F" d="M17.613,28.67c-0.366-0.22-0.735-0.1-1.047,0.287
		c-0.093,0.116-0.295,0.14-0.438,0.222c-0.249,0.143-0.581,0.244-0.705,0.461c-0.102,0.178-0.028,0.555,0.108,0.742
		c0.15,0.207,0.46,0.299,0.608,0.387c0.867-0.01,1.338-0.421,1.687-1.01C18.083,29.327,17.99,28.896,17.613,28.67z"/>
	<path fill-rule="evenodd" clip-rule="evenodd" fill="#8BC03F" d="M10.646,32.245c-0.202-0.107-0.529-0.091-0.76-0.011
		c-0.386,0.134-0.739,0.363-1.107,0.55c-0.319,0.162-0.476,0.424-0.429,0.773s0.261,0.57,0.619,0.625
		c0.537,0.082,1.722-0.534,1.957-1.015c0.037-0.076,0.058-0.161,0.124-0.353C10.942,32.654,10.846,32.354,10.646,32.245z"/>
</g>
</svg>
