<?xml version="1.0" encoding="utf-8"?>
<!-- Generator: Adobe Illustrator 16.0.0, SVG Export Plug-In . SVG Version: 6.00 Build 0)  -->
<!DOCTYPE svg PUBLIC "-//W3C//DTD SVG 1.1//EN" "http://www.w3.org/Graphics/SVG/1.1/DTD/svg11.dtd">
<svg version="1.1" id="Layer_1" xmlns="http://www.w3.org/2000/svg" xmlns:xlink="http://www.w3.org/1999/xlink" x="0px" y="0px"
	 width="60px" height="60.178px" viewBox="0 0 60 60.178" enable-background="new 0 0 60 60.178" xml:space="preserve">
<g>
	<path fill-rule="evenodd" clip-rule="evenodd" fill="#FFFFFF" d="M38.164,48.505c0.149,0.27,0.217,0.584,0.342,0.87
		c0.035,0.08,0.162,0.192,0.213,0.177c0.095-0.029,0.225-0.133,0.236-0.219c0.086-0.707-0.18-1.311-0.586-1.946
		C38.262,47.804,37.928,48.082,38.164,48.505z"/>
	<path fill-rule="evenodd" clip-rule="evenodd" fill="#FFFFFF" d="M44.893,51.72c0.28,0.126,0.561,0.253,0.84,0.378
		c0.056,0.09,0.111,0.181,0.167,0.271c0.126-0.332,0.252-0.663,0.341-0.895c-0.227-0.049-0.227-0.049-0.25-0.854
		c-0.277-0.091-0.56-0.131-0.488,0.291C45.584,51.411,45.398,51.644,44.893,51.72z"/>
	<path fill-rule="evenodd" clip-rule="evenodd" fill="#FFFFFF" d="M48.188,48.593c0,0.379,0,0.758,0,1.179
		c0.072,0.202,0.165,0.471,0.268,0.738c0.017,0.043,0.075,0.094,0.118,0.096c0.051,0.002,0.121-0.029,0.156-0.069
		c0.188-0.213,0.061-0.979-0.155-1.18c-0.108-0.102-0.166-0.273-0.212-0.423c-0.032-0.106-0.006-0.229-0.006-0.345
		C48.301,48.59,48.244,48.591,48.188,48.593z"/>
	<path fill-rule="evenodd" clip-rule="evenodd" fill="#FFFFFF" d="M47.752,51.761c0.329-0.174,0.658-0.348,0.986-0.521
		c-0.451,0.143-0.267-0.368-0.377-0.418c-0.234,0.306-0.441,0.575-0.648,0.845C47.727,51.698,47.739,51.729,47.752,51.761z"/>
	<path fill-rule="evenodd" clip-rule="evenodd" fill="#FFFFFF" d="M40.263,55.044c0.003,0.045,0.007,0.089,0.011,0.133
		c0.186,0.124,0.373,0.248,0.707,0.469c-0.027-0.281-0.008-0.577-0.065-0.592C40.711,55,40.482,55.039,40.263,55.044z"/>
	<path fill-rule="evenodd" clip-rule="evenodd" fill="#FFFFFF" d="M44.869,54.335c0.398-0.131,0.796-0.262,1.193-0.393
		c-0.02-0.059-0.039-0.119-0.059-0.178c-0.403,0.116-0.807,0.233-1.209,0.349C44.82,54.188,44.845,54.262,44.869,54.335z"/>
	<path fill-rule="evenodd" clip-rule="evenodd" fill="#FFFFFF" d="M41.504,55.154c0.309,0.184,0.651,0.095,0.986,0.073
		c0.006-0.062,0.013-0.123,0.02-0.184c-0.33-0.021-0.659-0.042-0.988-0.063C41.516,55.038,41.51,55.096,41.504,55.154z"/>
	<path fill-rule="evenodd" clip-rule="evenodd" fill="#FFFFFF" d="M39.508,52.741c-0.141,0.339-0.25,0.6-0.367,0.876
		c0.504,0.066,0.423-0.404,0.576-0.642C39.732,52.95,39.574,52.813,39.508,52.741z"/>
	<path fill-rule="evenodd" clip-rule="evenodd" fill="#FFFFFF" d="M49.279,12.807c0.43-0.424,0.57-0.966,0.635-1.602
		c-0.291,0.221-0.659,0.231-0.725,0.635c-0.043,0.258-0.164,0.503-0.23,0.759c-0.019,0.071,0.007,0.213,0.049,0.229
		C49.086,12.858,49.227,12.858,49.279,12.807z"/>
	<path fill-rule="evenodd" clip-rule="evenodd" fill="#FFFFFF" d="M52.301,18.479c0.258-0.153,0.516-0.307,0.697-0.415
		c-0.125-0.152-0.125-0.152,0.282-0.7c-0.136-0.206-0.303-0.381-0.478-0.064c-0.207,0.375-0.454,0.433-0.83,0.218
		c0.119,0.23,0.239,0.462,0.359,0.693C52.322,18.301,52.311,18.39,52.301,18.479z"/>
	<path fill-rule="evenodd" clip-rule="evenodd" fill="#FFFFFF" d="M55.146,18.75c0.238-0.042,0.555-0.619,0.518-0.866
		c-0.019-0.125,0.033-0.269,0.082-0.393c0.034-0.087,0.116-0.156,0.178-0.233c-0.039-0.029-0.076-0.057-0.115-0.086
		c-0.199,0.252-0.398,0.504-0.619,0.783c-0.059,0.173-0.139,0.402-0.211,0.632c-0.012,0.037,0.002,0.103,0.027,0.126
		C55.039,18.743,55.102,18.758,55.146,18.75z"/>
	<path fill-rule="evenodd" clip-rule="evenodd" fill="#FFFFFF" d="M54.752,18.746c-0.316,0.08-0.597,0.15-0.876,0.22
		c-0.007,0.028-0.016,0.056-0.023,0.084c0.31,0.057,0.62,0.115,0.931,0.171C54.407,19.08,54.799,18.836,54.752,18.746z"/>
	<path fill-rule="evenodd" clip-rule="evenodd" fill="#FFFFFF" d="M49.087,27.031c-0.038-0.167-0.118-0.324-0.2-0.476
		c-0.009-0.018-0.152,0.005-0.193,0.048c-0.029,0.03-0.006,0.13,0.02,0.19c0.054,0.135,0.123,0.264,0.213,0.451
		C48.986,27.168,49.099,27.085,49.087,27.031z"/>
	<path fill-rule="evenodd" clip-rule="evenodd" fill="#FFFFFF" d="M47.87,15.629c0.024-0.008-0.01-0.183-0.016-0.265
		c-0.272,0.151-0.481,0.267-0.704,0.39C47.449,16.063,47.643,15.707,47.87,15.629z"/>
	<path fill-rule="evenodd" clip-rule="evenodd" fill="#FFFFFF" d="M46.762,23.739c-0.028,0.384-0.057,0.768-0.085,1.152
		c0.044,0.004,0.089,0.007,0.134,0.011c0.031-0.388,0.062-0.776,0.092-1.164C46.855,23.738,46.809,23.738,46.762,23.739z"/>
	<path fill-rule="evenodd" clip-rule="evenodd" fill="#FFFFFF" d="M56.161,16.009c-0.015-0.306-0.028-0.612-0.043-0.918
		c-0.042,0.004-0.083,0.008-0.124,0.012c0.023,0.306,0.049,0.611,0.073,0.917C56.098,16.016,56.129,16.013,56.161,16.009z"/>
	<path fill-rule="evenodd" clip-rule="evenodd" fill="#FFFFFF" d="M29.991,18.645c1.612,0,3.124-0.623,4.253-1.754
		c1.139-1.141,1.791-2.702,1.789-4.282c-0.006-3.307-2.654-5.997-5.901-5.997l-0.119,0.002c-1.659-0.042-3.212,0.594-4.375,1.796
		c-1.099,1.135-1.702,2.621-1.7,4.185c0.004,3.206,2.502,5.859,5.688,6.041C29.748,18.641,29.872,18.616,29.991,18.645z
		 M27.467,12.59c-0.001-0.632,0.258-1.261,0.707-1.727c0.451-0.466,1.043-0.723,1.664-0.723l0.152,0.004l0.142-0.003
		c1.283,0,2.369,1.133,2.372,2.474c0,0.64-0.282,1.306-0.758,1.782c-0.327,0.328-0.896,0.719-1.755,0.719
		c-0.055,0-0.11-0.001-0.166-0.005C28.504,15.035,27.469,13.928,27.467,12.59z"/>
	<path fill-rule="evenodd" clip-rule="evenodd" fill="#FFFFFF" d="M6.88,50.749c-0.13,0.573-0.329,1.126-0.354,1.688
		c-0.017,0.378,0.213,0.767,0.333,1.15c0.237-0.24,0.474-0.48,0.731-0.74c0.58,0.544,1.236,1.157,1.892,1.771
		C9.153,52.95,8.523,51.536,6.88,50.749z"/>
	<path fill-rule="evenodd" clip-rule="evenodd" fill="#FFFFFF" d="M24.725,40.104c0,0.872,0,1.744,0,2.709
		c0.166,0.465,0.379,1.087,0.616,1.7c0.038,0.099,0.175,0.217,0.271,0.222c0.119,0.005,0.278-0.067,0.359-0.159
		c0.435-0.489,0.141-2.25-0.356-2.713c-0.251-0.234-0.382-0.628-0.487-0.974c-0.074-0.243-0.015-0.528-0.015-0.794
		C24.983,40.098,24.854,40.102,24.725,40.104z"/>
	<path fill-rule="evenodd" clip-rule="evenodd" fill="#FFFFFF" d="M6.793,16.1c-0.145-0.206-0.523-0.301-0.806-0.329
		c-0.114-0.011-0.306,0.276-0.381,0.461c-0.243,0.595-0.447,1.207-0.726,1.977c0.543-0.148,0.903-0.234,1.257-0.344
		C6.83,17.651,7.215,16.696,6.793,16.1z"/>
	<path fill-rule="evenodd" clip-rule="evenodd" fill="#FFFFFF" d="M3.637,33.25C2.6,33.581,3.022,32.403,2.77,32.291
		c-0.539,0.702-1.016,1.322-1.492,1.942c0.03,0.072,0.061,0.145,0.092,0.217C2.125,34.05,2.881,33.65,3.637,33.25z"/>
	<path fill-rule="evenodd" clip-rule="evenodd" fill="#FFFFFF" d="M3.438,58.775c-0.049-0.021-0.316,0.268-0.332,0.428
		c-0.011,0.114,0.209,0.288,0.36,0.375c0.343,0.195,0.708,0.353,1.215,0.6c0-0.264,0.1-0.629-0.019-0.725
		C4.302,59.163,3.865,58.961,3.438,58.775z"/>
	<path fill-rule="evenodd" clip-rule="evenodd" fill="#FFFFFF" d="M19.457,30.759c-0.298,0.127-0.529,0.405-0.779,0.61
		c0.291,0.12,0.583,0.32,0.887,0.339c0.25,0.016,0.566-0.13,0.748-0.311c0.1-0.099,0.042-0.569-0.053-0.608
		C20.021,30.693,19.686,30.661,19.457,30.759z"/>
	<path fill-rule="evenodd" clip-rule="evenodd" fill="#FFFFFF" d="M21.635,35.389c0.566,0.61,1.133,1.219,1.699,1.829
		c0.061-0.06,0.12-0.12,0.181-0.18c-0.545-0.627-1.09-1.254-1.636-1.881C21.798,35.233,21.716,35.311,21.635,35.389z"/>
	<path fill-rule="evenodd" clip-rule="evenodd" fill="#FFFFFF" d="M9.84,30.098c-0.02-0.018-0.036-0.033-0.055-0.05
		c-0.006,0.019-0.01,0.037-0.016,0.056C9.792,30.102,9.818,30.1,9.84,30.098z"/>
	<path fill-rule="evenodd" clip-rule="evenodd" fill="#FFFFFF" d="M59.852,52.693c-0.578-2.218-1.171-4.432-1.764-6.646
		c-0.215-0.8-0.428-1.601-0.643-2.401c-0.174,0.583-0.427,1.106-1.389,0.981c0.322-0.767,0.63-1.5,1.009-2.405
		c-0.537-2.023-1.071-4.048-1.605-6.072c-0.349-1.319-0.696-2.637-1.046-3.956c-0.115-0.104-0.222-0.231-0.27-0.34
		c-0.376-0.86-0.579-1.807-1.03-2.619c-0.4-0.721-0.252-1.301,0.011-1.897c-0.605-2.282-1.209-4.564-1.83-6.841
		c-0.117-0.432-0.293-0.821-0.505-1.176c0.264,0.096,0.527,0.193,0.792,0.29c0.018-0.05,0.035-0.1,0.055-0.15
		c-0.33-0.135-0.659-0.269-0.988-0.404c-0.003,0.008-0.006,0.015-0.008,0.023c-0.774-1.125-2.018-1.788-3.496-1.788l-0.073,0
		c-0.812,0.012-1.622,0.013-2.431,0.015c-0.514,0.975-0.621,2.077-0.131,3.435c0.012,0.033,0.01,0.063,0.02,0.095
		c0.866-0.002,1.731-0.003,2.615-0.017c0.359,0,0.609,0.101,0.745,0.603c0.098,0.36,0.191,0.721,0.289,1.081
		c-0.062,0.035-0.12,0.077-0.183,0.109c-0.367,0.189-0.597,0.052-0.62-0.365c-0.004-0.073-0.008-0.146-0.011-0.208
		c-0.117-0.035-0.23-0.109-0.3-0.08c-0.102,0.042-0.173,0.161-0.257,0.246c0.279,0.269,0.192,0.553,0.043,0.844
		c-0.012,0.025,0.026,0.078,0.066,0.187c0.066-0.176,0.105-0.277,0.171-0.453c0.106,0.164,0.175,0.277,0.249,0.385
		c0.143,0.203,0.425,0.208,0.498-0.008c0.081-0.246,0.217-0.394,0.388-0.487c0.663,2.453,1.318,4.908,1.97,7.364l0.344,1.3
		c0.505,1.904,1.008,3.808,1.51,5.712c0.541,2.049,1.082,4.098,1.625,6.146c0.334,1.255,0.67,2.51,1.006,3.764
		c0.592,2.206,1.184,4.411,1.758,6.619c0.065,0.254,0.031,0.489-0.012,0.541c-1.16,0.457-2.091,0.738-2.93,0.884
		c-2.033,0.355-4.174,0.648-6.361,0.87c-1.445,0.149-2.947,0.217-4.401,0.284l-1.169,0.055c-0.756,0.037-1.512,0.056-2.268,0.077
		c-0.478,0.012-0.955,0.025-1.437,0.042c-0.212,0.007-0.397,0.05-0.554,0.103H22.553c-0.15-0.052-0.33-0.093-0.533-0.102
		c-0.451-0.022-0.901-0.04-1.352-0.058c-0.459-0.019-0.919-0.037-1.379-0.06l-0.906-0.042c-1.063-0.05-2.128-0.1-3.19-0.179
		l-0.385-0.028c-1.429-0.106-2.905-0.216-4.319-0.408c-1.695-0.232-3.506-0.534-5.867-0.977c-0.717-0.134-0.976-0.318-1.092-0.489
		v-0.492c0.016-0.044,0.031-0.09,0.043-0.139l0.383-1.489c0.154-0.601,0.311-1.2,0.467-1.799c-0.164-0.032-0.328-0.065-0.49-0.098
		c0.23-0.687,0.463-1.101,0.854-1.286c0.374-1.403,0.75-2.806,1.126-4.208c0.363-1.35,0.726-2.699,1.086-4.049
		c0.343-1.287,0.683-2.575,1.022-3.862c0.333-1.26,0.665-2.52,1.001-3.78c0.248-0.929,0.498-1.858,0.748-2.787
		c-0.398,0.037-0.905,0.083-1.69,0.155c0.366-0.54,0.547-0.805,0.741-1.09c0.33,0.302,0.633,0.578,0.965,0.88
		c0.063-0.234,0.125-0.467,0.188-0.701c0.625-2.314,1.27-4.707,1.875-7.074c0.371-1.452,0.371-1.452,1.588-1.452l0.23,0.003
		c1.656,0.037,3.314,0.027,4.972,0.018c0.67-0.003,1.341-0.007,2.009-0.008c0.152,0,0.306-0.011,0.469-0.026l2.064-0.149
		c-0.924-1.05-0.937-2.623-1.906-3.655c-0.178-0.188-0.066-0.646-0.089-0.979c0.091-0.023,0.183-0.047,0.272-0.07
		c-0.57-1.387-0.771-2.833-0.582-4.326c-0.115-0.024-0.231-0.049-0.348-0.074c0-0.46,0-0.92,0-1.379
		c0.194,0.088,0.389,0.176,0.583,0.265c0.833-3.284,2.843-5.434,6.152-6.552c0.308-0.104,0.656-0.186,1.026-0.271
		c0.121-0.028,0.244-0.057,0.366-0.087h2.404c0.106,0.036,0.219,0.063,0.335,0.081c2.469,0.345,4.462,1.534,5.923,3.534
		c1.858,2.543,2.308,5.34,1.335,8.313c-0.198,0.606-0.501,1.223-0.821,1.876c-0.165,0.335-0.329,0.67-0.482,1.008l-1.134,2.495
		l2.926,0.004c-0.395-0.351-0.92-0.587-1.641-0.655c0.065-0.599-0.021-1.281,0.247-1.768c0.183-0.333,0.86-0.392,1.429-0.618
		c0.209,0.238,0.449,0.514,0.69,0.787c1.348,1.518,2.636,1.388,3.488-0.335c0.072,0.076,0.139,0.169,0.198,0.283
		c0.128-0.094,0.311-0.159,0.35-0.273c0.051-0.144-0.004-0.332-0.039-0.495c-0.024-0.112-0.093-0.214-0.141-0.32
		c0.019-0.044,0.038-0.087,0.057-0.131c-0.056,0-0.111,0.001-0.167,0.001l-1.885-0.003c0.101-0.246,0.194-0.498,0.279-0.758
		c1.326-4.055,0.69-8.028-1.839-11.491c-1.789-2.448-4.25-4.058-7.143-4.724c-0.008,0.08-0.018,0.16-0.025,0.24
		c-1.422,0.095-2.879,0.472-4.196-0.312c0.01-0.089,0.019-0.178,0.028-0.267h-0.613l-0.214,0.055
		c-0.172,0.043-0.345,0.084-0.519,0.124c-0.327,0.076-0.666,0.163-1.014,0.264c0.039,0.492,0.04,1.213,0.107,1.917
		c-0.784-0.519-1.375-0.91-1.883-1.246c-3.689,1.681-6.127,4.664-7.08,8.712c-0.606,2.568-0.404,5.118,0.574,7.489
		c-1.482,0.007-2.965,0.013-4.448-0.02l-0.308-0.003c-3.312,0-4.344,1.506-5.008,4.108c-0.138,0.539-0.283,1.082-0.424,1.623
		c0.043,0.639,0.133,1.283,0.221,2.107c-0.26,0-0.515,0-0.773,0c-0.295,1.108-0.594,2.213-0.886,3.298
		c-0.319,1.185-0.639,2.369-0.954,3.554c-0.336,1.262-0.67,2.525-1.004,3.788c-0.338,1.285-0.678,2.569-1.021,3.854
		c-0.359,1.348-0.722,2.695-1.083,4.043c-0.102,0.38-0.203,0.759-0.305,1.14c0.183,0.344,0.195,0.938,0.023,1.834
		c-0.104-0.252-0.207-0.504-0.313-0.756c-0.233,0.874-0.469,1.748-0.701,2.621c-0.195,0.733-0.383,1.469-0.571,2.204
		c0.245,0.227,0.476,0.438,0.705,0.649c-0.069,0.077-0.139,0.154-0.208,0.231c-0.24-0.03-0.477-0.066-0.689-0.135l-0.181,0.704
		L0,52.444v2.299l0.093,0.275c0.552,1.632,1.855,2.653,3.876,3.032c2.423,0.455,4.285,0.764,6.043,1.006
		c1.521,0.206,3.053,0.32,4.535,0.431l0.383,0.028c1.094,0.082,2.191,0.134,3.289,0.185l0.896,0.043
		c0.471,0.022,0.941,0.042,1.412,0.061c0.323,0.013,0.646,0.026,0.973,0.04l0.253,0.122H38.1l0.244-0.117
		c0.349-0.011,0.697-0.02,1.045-0.028c0.782-0.021,1.564-0.042,2.348-0.08l1.157-0.055c1.503-0.069,3.056-0.14,4.599-0.299
		c0.224-0.022,0.445-0.049,0.668-0.073c0.406-0.765,1.195-0.317,1.96-0.233c0.242-0.031,0.487-0.06,0.728-0.092
		c0.145-0.068,0.282-0.174,0.41-0.33c-0.359-0.437-0.771-0.938-1.183-1.438c0.052-0.114,0.103-0.226,0.155-0.339
		c0.372,0.191,0.791,0.326,1.107,0.586c0.452,0.373,1.008,0.771,1.191,1.275c0.529-0.083,1.054-0.169,1.571-0.26
		c1.081-0.188,2.23-0.53,3.619-1.079C59.811,56.579,60.29,54.384,59.852,52.693z M43.631,17.656c0.002,0.123,0.004,0.25,0.007,0.358
		c-0.062,0.014-0.114,0.009-0.161-0.004C43.528,17.893,43.579,17.774,43.631,17.656z M41.651,9.969
		C41.2,9.43,40.75,8.892,40.217,8.254C41.58,8.081,41.897,8.41,41.651,9.969z M4.707,57.057c1.061,0,1.969,0,3.07,0
		C6.373,57.861,5.335,57.875,4.707,57.057z M29.575,57.604c-0.007-0.102-0.015-0.203-0.022-0.306
		c0.506-0.011,1.032-0.104,1.501,0.022c0.131,0.035,0.088,0.716,0.149,1.362C30.435,58.173,30.005,57.889,29.575,57.604z
		 M34.676,57.718c-0.77,0.051-1.557,0.255-2.27-0.169c0.014-0.133,0.027-0.266,0.041-0.398c0.758,0.048,1.516,0.097,2.273,0.145
		C34.705,57.437,34.691,57.577,34.676,57.718z"/>
</g>
</svg>
