<?xml version="1.0" encoding="utf-8"?>
<!-- Generator: Adobe Illustrator 16.0.0, SVG Export Plug-In . SVG Version: 6.00 Build 0)  -->
<!DOCTYPE svg PUBLIC "-//W3C//DTD SVG 1.1//EN" "http://www.w3.org/Graphics/SVG/1.1/DTD/svg11.dtd">
<svg version="1.1" id="Layer_1" xmlns="http://www.w3.org/2000/svg" xmlns:xlink="http://www.w3.org/1999/xlink" x="0px" y="0px"
	 width="88px" height="75.534px" viewBox="0 0 88 75.534" enable-background="new 0 0 88 75.534" xml:space="preserve">
<g>
	<path fill-rule="evenodd" clip-rule="evenodd" fill="#8BC03F" d="M60.186,71.927c0.563-0.721,0.885-1.131,1.098-1.406
		c-0.467-0.35-0.888-0.666-1.289-0.968c-0.396,0.05-0.779,0.082-1.14,0.084C59.268,70.359,59.719,71.1,60.186,71.927z"/>
	<path fill-rule="evenodd" clip-rule="evenodd" fill="#8BC03F" d="M62.062,62.701c0.064-1.222,0.088-1.902-0.103-2.563
		c-0.174,0.991-0.38,1.984-0.623,2.978L62.062,62.701z"/>
	<path fill-rule="evenodd" clip-rule="evenodd" fill="#8BC03F" d="M60.633,65.674c0.236-0.055,0.478-0.119,0.723-0.19
		c0.219-0.484,0.399-0.997,0.523-1.504l-0.808,0.162C60.936,64.653,60.789,65.164,60.633,65.674z"/>
	<path fill-rule="evenodd" clip-rule="evenodd" fill="#8BC03F" d="M30.251,21.718c-1.13-0.374-2.285-0.536-1.997,1.188
		c0.113,0.671,0.093,1.214-0.042,1.666c0.86,0.669,1.703,1.351,2.523,2.049c0.198-0.521,0.384-1.009,0.539-1.414
		C30.348,25.006,30.348,25.006,30.251,21.718z"/>
	<path fill-rule="evenodd" clip-rule="evenodd" fill="#8BC03F" d="M46.722,57.51c0.316,0.802,0.599,1.633,0.848,2.51
		c0.236-0.24,0.48-0.487,0.729-0.74c-0.382-1.12-0.785-2.221-1.21-3.302C46.955,56.494,46.816,57.002,46.722,57.51z"/>
	<path fill-rule="evenodd" clip-rule="evenodd" fill="#8BC03F" d="M46.018,53.559c0.019-0.011,0.036-0.021,0.055-0.032
		c-0.267-0.609-0.537-1.218-0.819-1.816c-0.859-0.115-1.47-0.034-1.939,0.272c0.802,0.847,1.509,1.795,2.122,2.846
		c0.409,0.083,0.836,0.168,1.279,0.257C46.309,54.194,46.131,53.807,46.018,53.559z"/>
	<path fill-rule="evenodd" clip-rule="evenodd" fill="#8BC03F" d="M54.877,60.763c-0.361,0.544-0.419,1.466-0.26,2.489
		c0.196-0.561,0.383-1.122,0.549-1.687C55.07,61.298,54.975,61.036,54.877,60.763z"/>
	<path fill-rule="evenodd" clip-rule="evenodd" fill="#8BC03F" d="M57.355,34.918c0.16-0.176-0.248-1.234-0.366-1.229
		c-0.409,0.019-0.821,0.074-1.264,0.147c0.297,0.574,0.58,1.157,0.849,1.751C56.862,35.38,57.13,35.168,57.355,34.918z"/>
	<path fill-rule="evenodd" clip-rule="evenodd" fill="#8BC03F" d="M56.383,27.417c-2.072-0.232-3.146,0.472-3.324,2.025
		c0.167,0.234,0.345,0.459,0.505,0.698C55.219,30.137,55.172,28.158,56.383,27.417z"/>
	<path fill-rule="evenodd" clip-rule="evenodd" fill="#8BC03F" d="M39.946,22.541c-0.958,1.247-1.805,2.349-2.652,3.452
		c0.054,0.128,0.108,0.257,0.162,0.385c1.344-0.711,2.687-1.421,4.031-2.132C39.643,24.833,40.395,22.74,39.946,22.541z"/>
	<path fill-rule="evenodd" clip-rule="evenodd" fill="#8BC03F" d="M25.672,36.9c1.216-0.4,2.434-0.801,3.65-1.202
		c-0.286-0.201-0.568-0.403-0.869-0.598c-1.028,0.297-2.056,0.595-3.085,0.892C25.47,36.295,25.571,36.598,25.672,36.9z"/>
	<path fill-rule="evenodd" clip-rule="evenodd" fill="#8BC03F" d="M48.766,66.548c0.001,0.013,0.004,0.024,0.005,0.037
		c0.024-0.014,0.048-0.022,0.072-0.037C48.817,66.548,48.792,66.548,48.766,66.548z"/>
	<path fill-rule="evenodd" clip-rule="evenodd" fill="#8BC03F" d="M37.04,56.83c0.124-0.137,0.247-0.273,0.37-0.41
		c-0.873-0.803-1.746-1.607-2.923-2.69C34.189,56.451,35.604,56.65,37.04,56.83z"/>
	<path fill-rule="evenodd" clip-rule="evenodd" fill="#8BC03F" d="M15.944,40.544c0.027-0.251,0.054-0.5,0.081-0.75
		c-1.227-0.077-2.453-0.156-3.68-0.234c0.027,0.032,0.051,0.065,0.078,0.098c0.219,0.252,0.339,0.503,0.419,0.669l0.069,0.141
		l0.093,0.173C13.961,40.809,14.961,40.61,15.944,40.544z"/>
	<path fill-rule="evenodd" clip-rule="evenodd" fill="#8BC03F" d="M2.257,33.967c1.041,0.135,1.469-0.29,1.721-0.868
		c-0.234-0.536-0.459-1.079-0.672-1.633C2.93,32.361,2.6,33.148,2.257,33.967z"/>
	<path fill-rule="evenodd" clip-rule="evenodd" fill="#8BC03F" d="M24.673,65.312c0.166,0.246,0.333,0.49,0.499,0.736
		c0.434,0.263,0.873,0.517,1.318,0.76c-0.429-0.641-0.858-1.28-1.287-1.921C25.026,65.028,24.849,65.17,24.673,65.312z"/>
	<path fill-rule="evenodd" clip-rule="evenodd" fill="#8BC03F" d="M80.3,60.058c0.26,0.962,0.521,1.924,0.782,2.887
		c0.183-0.047,0.364-0.093,0.549-0.14C82.099,61.669,81.797,60.717,80.3,60.058z"/>
	<path fill-rule="evenodd" clip-rule="evenodd" fill="#8BC03F" d="M37.087,7.978c-0.968-1.114-1.937-2.229-2.905-3.343
		c-0.145,0.138-0.291,0.276-0.435,0.414c1.006,1.083,2.012,2.166,3.018,3.25C36.873,8.191,36.98,8.085,37.087,7.978z"/>
	<path fill-rule="evenodd" clip-rule="evenodd" fill="#8BC03F" d="M50.697,16.99c-0.345,0.507-0.666,0.979-1.316,1.937
		c1.472-0.134,2.401-0.218,3.128-0.284C51.88,18.069,51.316,17.556,50.697,16.99z"/>
	<path fill-rule="evenodd" clip-rule="evenodd" fill="#8BC03F" d="M79.84,32.935l-0.088-0.848c-0.103,0.054-0.205,0.108-0.308,0.163
		c-0.015-0.036-0.03-0.073-0.046-0.109c0.104-0.135,0.21-0.272,0.316-0.411l-0.222-2.128l-2.077,1.608
		c0.021,0.65,0.049,0.66,0.28,0.709c-0.102,0.269-0.247,0.651-0.394,1.034c-0.063-0.104-0.128-0.208-0.192-0.313
		c-0.324-0.146-0.646-0.292-0.971-0.437c-3.011,2.498-6.284,4.113-10.007,4.937c-1.649,0.364-3.237,0.899-4.773,1.417
		c-0.63,0.212-1.26,0.425-1.891,0.625c-0.252,0.078-0.784,0.293-1.208,0.764c-0.479-1.511-1.054-2.956-1.688-4.359
		c-0.365,0.261-0.765,0.512-1.174,0.805c-0.495-0.787-0.834-1.329-1.41-2.246c0.661-0.114,1.22-0.224,1.735-0.31
		c-0.658-1.277-1.367-2.518-2.161-3.695c-0.161,0-0.335-0.012-0.532-0.052c-0.007-0.231,0.005-0.444,0.027-0.646
		c-1.929-2.716-4.213-5.163-6.882-7.298c-1.39-1.112-2.86-2.109-4.399-3.019c0.112,0.933,0.038,1.841-0.325,2.249
		c-0.145,0.164-0.428,0.293-0.639,0.282c-0.171-0.008-0.414-0.219-0.481-0.394c-0.42-1.089-0.799-2.192-1.095-3.02
		c0-0.168,0-0.328,0-0.493c-2.992-1.48-6.258-2.643-9.872-3.491c-3.058-0.717-6.195-1.466-9.224-2.393
		c0.011,0.023,0.019,0.04,0.03,0.066c-0.834-0.167-1.518-0.305-2.205-0.442c0.037-0.109,0.075-0.2,0.113-0.293
		C12.451,9.214,7.684,5.617,4.146,2.673C3.967,2.525,3.781,2.386,3.572,2.231L0.621,0l-0.29,3.365C0.134,5.667,0.03,7.876,0,10.02
		c1.124,2.063,1.778,4.115,1.494,6.434c-0.042,0.35-0.576,0.774-0.965,0.893c-0.069,0.021-0.176-0.028-0.29-0.1
		c0.187,2.211,0.47,4.352,0.867,6.424c0.536,2.792,1.271,5.38,2.199,7.795c0.144-0.343,0.293-0.699,0.454-1.082
		c0.268,0.294,0.915,0.854,0.849,0.956c-0.309,0.481-0.385,1.194-0.63,1.759c0.924,2.116,2.004,4.097,3.268,5.938l-2.624-0.282
		l-0.95-0.03l-1.697,1.712l0.518,1.159c0.272,0.608,0.533,1.224,0.793,1.838c0.585,1.381,1.191,2.81,1.929,4.187
		c1.519,2.834,3.524,5.337,6.059,7.547v2.021l-0.031,0.685l0.349,0.52c0.107,0.16,0.216,0.315,0.329,0.465
		c5.421,7.265,12.483,12.168,20.99,14.573c5.047,1.427,10.262,1.855,14.696,2.087c0.188,0.01,0.37,0.015,0.552,0.015
		c3.209,0,5.639-1.529,7.024-4.423c0.21-0.439,0.424-0.876,0.638-1.314c0.075-0.15,0.147-0.309,0.223-0.461l1.738,0.236
		c0.327,0.045,0.676,0.067,1.036,0.067c0.013,0,0.026-0.002,0.038-0.002c-0.339-0.592-0.652-1.17-0.915-1.769
		c-0.443-1.009,0.69-2.741,1.841-3.111c1.24-0.398,1.704-1.833,1.263-3.123c-0.512-1.489-0.785-3.063-0.938-4.648
		c1.111,1.613,1.631,2.373,1.854,3.151c0.564-3.219,0.766-6.422,0.595-9.58c-0.01-0.18-0.03-0.356-0.042-0.534
		c0.556,0,1.108,0,1.669,0c-0.034-0.333-0.071-0.588-0.087-0.846c-0.034-0.555-0.059-1.108-0.08-1.662
		c-0.008-0.178-0.061-0.396,0.02-0.527c0.452-0.729,1.149-0.927,2.077-0.517c0.08-0.293,0.278-0.61,0.201-0.83
		c-0.097-0.276-0.402-0.494-0.649-0.697c-0.172-0.142-0.397-0.214-0.6-0.317c-0.028,0.062-0.056,0.121-0.084,0.183
		c0.223,0.271,0.446,0.542,0.641,0.779c-0.563,0.694-1.498-0.47-1.761,0.569c-0.143,0.568-1.093,0.918-0.26,1.803
		c-0.438-0.168-0.647-0.25-0.858-0.332c-0.034,0.069-0.067,0.137-0.102,0.206c0.257,0.112,0.521,0.209,0.765,0.345
		c0.132,0.072,0.259,0.192,0.322,0.323c0.027,0.057-0.113,0.193-0.176,0.293c-0.063,0.101-0.189,0.21-0.174,0.295
		c0.075,0.463-0.186,0.543-0.555,0.574c-0.111,0.01-0.223,0.032-0.333,0.055c-0.16-2.043-0.474-4.065-0.788-6.026
		c-0.066-0.414-0.132-0.828-0.198-1.252c0.35-0.115,0.699-0.232,1.048-0.351c1.179-0.397,2.307-0.774,3.438-1.074
		c-0.021-0.329,0.344-0.541,0.417-0.831c0.186-0.736,0.85,0.087,1.247-0.404c-0.137-0.168-0.295-0.359-0.454-0.552
		c0.021-0.044,0.04-0.086,0.061-0.13c0.142,0.074,0.303,0.125,0.424,0.225c0.176,0.144,0.393,0.299,0.461,0.494
		c0.055,0.155-0.086,0.382-0.143,0.589c-0.657-0.291-1.152-0.151-1.473,0.367c-0.018,0.029-0.016,0.072-0.019,0.112
		c0.143-0.035,0.285-0.074,0.429-0.106c3.371-0.745,6.518-2.105,9.382-4.051C76.326,38.28,76.218,39.8,76,41.312
		c0.073-0.069,0.142-0.169,0.2-0.299c0.1-0.223,0.195-0.449,0.259-0.683c0.114-0.418,0.329-0.434,0.682-0.191
		c-0.572,0.439-0.904,0.891-0.65,1.594c0.105,0.292-0.201,0.526-0.523,0.429c-0.032-0.01-0.069-0.022-0.103-0.033
		c-0.034,0.193-0.061,0.389-0.098,0.583c-0.604,3.162-1.813,5.725-3.805,8.062l-3.013,3.539l5.079-0.522
		c-1.144,2.062-2.878,3.721-5.313,5.111l-6.654,3.8c-0.003,0.059-0.006,0.112-0.009,0.175c-0.019,0.352-0.081,0.727-0.174,1.104
		l4.812-0.966c-1.665,1.051-3.6,1.962-5.335,2.47c-0.55,1.222-1.331,2.248-1.999,2.431c-0.22,0.221-0.442,0.44-0.662,0.661
		c0.423,0.318,0.848,0.638,1.3,0.978c4.924-0.614,12.368-4.763,14.081-8.858l0.752-1.797c1.852-1.901,3.135-4.144,3.883-6.771
		l0.756-2.651l-2.259,0.236c0.131-0.241,0.243-0.492,0.365-0.739c0.359-0.008,0.637-0.289,0.512-0.631
		c-0.034-0.1-0.057-0.192-0.076-0.284c0.233-0.539,0.442-1.092,0.632-1.656c0.111-0.104,0.231-0.206,0.362-0.308
		c-0.08-0.057-0.155-0.099-0.226-0.134c0.256-0.822,0.483-1.665,0.652-2.548C80.083,39.988,80.218,36.562,79.84,32.935z
		 M1.508,5.024C1.501,4.939,1.496,4.854,1.489,4.769c0.42-0.008,0.86-0.085,1.25,0.019c0.109,0.029,0.073,0.597,0.125,1.133
		C2.224,5.498,1.866,5.261,1.508,5.024z M20.421,12.051c1.369,0.656,1.894,1.833,2.167,3.222c-0.546-0.511-1.092-1.021-1.575-1.475
		c-0.214,0.217-0.412,0.417-0.609,0.617c-0.1-0.32-0.292-0.644-0.277-0.958C20.148,12.989,20.314,12.529,20.421,12.051z
		 M14.442,11.296c0.552,0.508,0.96,0.884,1.37,1.261c-0.059,0.064-0.116,0.128-0.174,0.192
		C14.966,12.665,14.303,12.571,14.442,11.296z M3.899,4.647C4.53,4.688,5.161,4.728,5.792,4.768
		C5.779,4.885,5.767,5.002,5.754,5.119c-0.641,0.043-1.296,0.212-1.89-0.14C3.877,4.869,3.888,4.758,3.899,4.647z M6.842,39.797
		c0.897-0.019,1.834-0.184,2.667,0.04c0.232,0.062,0.157,1.272,0.266,2.419c-1.366-0.904-2.129-1.409-2.893-1.915
		C6.868,40.16,6.855,39.98,6.842,39.797z M43.341,72.094c-0.9-0.438-1.548-0.719-2.159-1.066c-0.269-0.154-0.659-0.463-0.64-0.667
		c0.027-0.283,0.502-0.796,0.589-0.759c0.761,0.329,1.537,0.689,2.177,1.204C43.518,70.976,43.341,71.625,43.341,72.094z
		 M50.32,66.137c0.225,0.905,0.423,1.816,0.62,2.726c-0.624,0.156-1.261,0.295-1.86,0.357l-0.281-2.413
		c-0.007-0.074-0.019-0.147-0.027-0.222c-2.458,1.388-4.278,1.401-5.382-0.037c1.859,0,3.458,0,5.377,0
		c-0.076-0.69-0.151-1.374-0.254-2.051c-0.244-1.635-0.555-3.109-0.942-4.478c-0.119,0.121-0.24,0.243-0.359,0.363
		c-0.213-0.683-0.62-1.373-0.591-2.045c0.013-0.276,0.053-0.553,0.103-0.828c-0.152-0.385-0.31-0.766-0.478-1.138
		c-0.246-0.54-0.521-1.049-0.809-1.544c-1.231-0.246-2.326-0.466-3.426-0.686c0.366-1.088,0.735-1.786,1.304-2.16
		c-0.956-1.008-2.039-1.88-3.261-2.595l2.348,0.119l-0.942-2.632c-0.168-0.47-0.321-0.926-0.471-1.369
		c-0.339-1.009-0.659-1.961-1.087-2.914c-0.13-0.29-0.266-0.578-0.407-0.861c0.714,1.021,1.4,2.065,2.061,3.133
		c1.359,2.198,2.584,4.479,3.698,6.847c0.726,0.098,1.625,0.331,2.78,0.692c-0.781,0.448-1.307,0.749-1.961,1.124
		c0.352,0.807,0.69,1.624,1.017,2.451c0.056-0.212,0.11-0.425,0.16-0.64c2.92,1.399,4.039,3.911,4.622,6.877
		c-1.164-1.091-2.33-2.181-3.36-3.148c-0.073,0.073-0.141,0.142-0.212,0.213C49.051,61.486,49.73,63.761,50.32,66.137z
		 M54.618,63.252c-0.09,0.256-0.178,0.512-0.274,0.767c-0.137,0.364-0.283,0.725-0.438,1.085c-0.737-2.948-1.597-5.758-2.573-8.459
		c0.058-0.06,0.114-0.116,0.176-0.178c0.251,0.236,0.537,0.502,0.821,0.77c-0.143-0.725-0.416-1.339-1.131-1.681
		c-0.033,0.145-0.071,0.286-0.104,0.429c-0.065-0.178-0.139-0.35-0.206-0.526c0.063,0.013,0.115,0.022,0.181,0.036
		c-0.101-0.218-0.145-0.313-0.172-0.374c0.167-0.096,0.297-0.17,0.493-0.283c-0.359-0.111-0.616-0.173-0.813-0.178
		c-1.633-4.161-3.566-8.063-5.85-11.756c-3.812-6.165-8.446-11.562-13.991-16.282c-0.266,0.7-0.559,1.467-0.854,2.243
		c-0.228-0.369-0.455-0.738-0.683-1.107c-1.144-0.515-2.288-1.032-3.432-1.547c1.387-0.209,2.173-0.718,2.446-1.638
		c-3.796-2.951-7.981-5.622-12.593-8.028c-0.201-0.104-0.413-0.188-0.626-0.268l-1.654-0.616l-1.713,2.83l9.454,8.005l-4.157-0.129
		l-1.33,0.084l-1.286,3.046l2.07,0.677c0.185,0.064,0.371,0.125,0.565,0.173c3.678,0.888,6.824,2.069,9.617,3.613
		c0.663,0.366,1.291,0.749,1.895,1.141c0.618-0.179,1.236-0.358,1.854-0.536c0.081,0.244,0.162,0.487,0.243,0.73
		c-0.409,0.135-0.819,0.27-1.228,0.404c3.32,2.337,5.692,5.106,7.179,8.42c0.197,0.438,0.375,0.901,0.546,1.384l-7.905-0.398
		c0.043-0.513-0.135-1.246-0.394-1.486c-0.177-0.166-0.271-0.445-0.346-0.69c-0.052-0.172-0.01-0.374-0.01-0.563
		c-0.092,0.004-0.183,0.006-0.275,0.007c0,0.617,0,1.235,0,1.921c0.078,0.219,0.175,0.491,0.277,0.773l-12.147-0.614l-0.265,3.832
		l1.735,0.229c0.762,0.103,1.524,0.199,2.286,0.295c1.639,0.209,3.333,0.425,4.979,0.681l1.619,0.248
		c2.502,0.383,5.09,0.777,7.562,1.338c4.181,0.948,7.022,3.187,8.685,6.843c0.923,2.033,1.551,4.3,1.976,7.135
		c0.066,0.44,0.122,0.882,0.173,1.326l-13.27,1.172l1.379,2.056c-2.333-0.718-4.537-1.656-6.619-2.796
		c0.615,0.919,1.229,1.837,1.845,2.756c-0.179,0.12-0.358,0.241-0.537,0.36c-0.876-1.292-1.75-2.584-2.626-3.876
		c-2.671-1.619-5.123-3.594-7.333-5.93l2.354,0.505l0.595-1.142c-0.163-0.041-0.328-0.078-0.517-0.097
		c0.062-0.575-0.021-1.23,0.237-1.698c0.12-0.219,0.467-0.315,0.847-0.424l-1.198-0.618C14.686,53.818,10.874,50.291,8.5,45.86
		c-0.53-0.989-0.988-2.018-1.448-3.094l7.521,0.81l-1.568-2.936c-0.373-0.066-0.738-0.185-1.093-0.396
		c0.025-0.235,0.049-0.472,0.075-0.707c0.12,0.008,0.239,0.016,0.359,0.022c-3.807-4.445-6.288-9.872-7.578-16.591
		c-0.923-4.81-1.239-9.997-0.959-15.771c2.051,1.611,4.415,3.289,7.045,4.771c0.009-0.032,0.023-0.063,0.032-0.095
		c0.188-0.693,0.545-0.719,1.128-0.316c-0.28,0.215-0.52,0.435-0.716,0.664c1.858,1.019,3.843,1.936,5.958,2.649
		c3.703,1.248,7.544,2.148,11.276,3.023c6.061,1.422,11.071,3.765,15.316,7.162c5.587,4.471,9.409,10.399,11.357,17.621
		c1.755,6.502,1.737,12.844-0.039,18.89c0.864,2.402,1.674,4.651,2.479,6.89C56.158,67.806,54.939,65.32,54.618,63.252z
		 M38.974,48.039c-0.259-0.631-0.506-1.268-0.781-1.891c-0.29-0.663-0.605-1.314-0.914-1.979
		C38.973,43.875,39.556,44.994,38.974,48.039z M32.698,33.54c-1.303-1.019-2.747-1.964-4.336-2.843
		c-0.321-0.178-0.646-0.351-0.976-0.52l0.469-1.11C29.559,30.492,31.172,31.982,32.698,33.54z M79.875,38.373
		c-0.073-0.178-0.145-0.358-0.221-0.534c-0.083-0.188-0.172-0.372-0.259-0.559C79.875,37.196,80.038,37.513,79.875,38.373z
		 M70.802,36.197c-0.004-0.051-0.008-0.102-0.013-0.154c0.255-0.005,0.52-0.051,0.755,0.011c0.065,0.018,0.045,0.36,0.075,0.684
		C71.234,36.483,71.017,36.341,70.802,36.197z M73.364,36.255c-0.386,0.026-0.782,0.128-1.14-0.085
		c0.007-0.066,0.013-0.133,0.021-0.2c0.381,0.024,0.761,0.049,1.143,0.073C73.378,36.114,73.372,36.184,73.364,36.255z
		 M76.113,35.225c-0.027-0.085-0.057-0.171-0.085-0.256c0.466-0.134,0.931-0.269,1.396-0.404c0.023,0.069,0.045,0.138,0.068,0.207
		C77.033,34.922,76.574,35.074,76.113,35.225z M78.605,39.983c0.334,0.306,0.58,0.533,0.827,0.76
		c-0.035,0.039-0.069,0.077-0.104,0.115C78.922,40.808,78.522,40.75,78.605,39.983z"/>
	<path fill-rule="evenodd" clip-rule="evenodd" fill="#8BC03F" d="M76.857,31.644l-0.253,0.196
		c-0.178,0.136-0.319,0.247-0.464,0.364C76.58,32.137,76.81,31.968,76.857,31.644z"/>
	<path fill-rule="evenodd" clip-rule="evenodd" fill="#8BC03F" d="M67.182,31.077c0.058,0.13,0.266,0.313,0.347,0.288
		c0.155-0.047,0.367-0.216,0.385-0.355c0.141-1.152-0.291-2.137-0.953-3.172c-0.175,0.68-0.719,1.133-0.336,1.822
		C66.869,30.099,66.979,30.612,67.182,31.077z"/>
	<path fill-rule="evenodd" clip-rule="evenodd" fill="#8BC03F" d="M86.157,46.514c-0.092,0.406-0.233,0.798-0.25,1.195
		c-0.012,0.269,0.15,0.544,0.234,0.814c0.169-0.169,0.336-0.34,0.519-0.523c0.411,0.386,0.876,0.82,1.34,1.256
		C87.768,48.074,87.322,47.072,86.157,46.514z"/>
	<path fill-rule="evenodd" clip-rule="evenodd" fill="#8BC03F" d="M85.667,45.804c0.271-0.155,0.483-0.277,0.803-0.461
		c-1.665-0.521-2.033-0.399-2.401,0.694c0.585,0.116,1.166,0.233,1.877,0.376C85.782,46.057,85.71,45.903,85.667,45.804z"/>
	<path fill-rule="evenodd" clip-rule="evenodd" fill="#8BC03F" d="M83.248,30.359c-0.052-0.172-0.01-0.374-0.01-0.563
		c-0.092,0.003-0.184,0.004-0.275,0.007c0,0.618,0,1.235,0,1.92c0.118,0.329,0.269,0.77,0.437,1.204
		c0.027,0.07,0.124,0.153,0.191,0.158c0.085,0.003,0.198-0.048,0.256-0.113c0.307-0.347,0.099-1.595-0.253-1.922
		C83.416,30.884,83.322,30.604,83.248,30.359z"/>
	<path fill-rule="evenodd" clip-rule="evenodd" fill="#8BC03F" d="M83.246,33.437c-0.382,0.497-0.721,0.936-1.059,1.376
		c0.022,0.051,0.044,0.102,0.064,0.154c0.536-0.284,1.071-0.567,1.607-0.851C83.124,34.35,83.424,33.516,83.246,33.437z"/>
	<path fill-rule="evenodd" clip-rule="evenodd" fill="#8BC03F" d="M71.216,41.298c-0.044-0.457-0.015-0.94-0.106-0.966
		c-0.333-0.088-0.706-0.022-1.064-0.015c0.006,0.071,0.011,0.144,0.017,0.217C70.366,40.736,70.67,40.937,71.216,41.298z"/>
	<path fill-rule="evenodd" clip-rule="evenodd" fill="#8BC03F" d="M82.182,42.06c0.122,0.265,0.248,0.525,0.364,0.789
		c0.109,0.248,0.208,0.502,0.312,0.754C83.089,42.388,82.857,41.943,82.182,42.06z"/>
	<path fill-rule="evenodd" clip-rule="evenodd" fill="#8BC03F" d="M82.086,47.108c0.049-0.055,0.098-0.108,0.147-0.163
		c-0.348-0.319-0.695-0.641-1.165-1.073C80.95,46.957,81.514,47.037,82.086,47.108z"/>
	<path fill-rule="evenodd" clip-rule="evenodd" fill="#8BC03F" d="M73.675,40.615c0.011-0.101,0.022-0.199,0.033-0.299
		c-0.537-0.034-1.074-0.068-1.611-0.103c-0.009,0.093-0.021,0.188-0.029,0.282C72.572,40.795,73.13,40.652,73.675,40.615z"/>
	<path fill-rule="evenodd" clip-rule="evenodd" fill="#8BC03F" d="M82.105,27.63c-0.386-0.444-0.772-0.889-1.157-1.333
		c-0.059,0.055-0.116,0.11-0.174,0.165c0.401,0.432,0.802,0.864,1.203,1.295C82.021,27.715,82.062,27.672,82.105,27.63z"/>
	<path fill-rule="evenodd" clip-rule="evenodd" fill="#8BC03F" d="M31.062,60.278c-0.012,0.268,0.151,0.544,0.234,0.815
		c0.168-0.171,0.336-0.341,0.519-0.524c0.411,0.385,0.875,0.819,1.34,1.254c-0.232-1.182-0.679-2.183-1.843-2.741
		C31.22,59.488,31.079,59.88,31.062,60.278z"/>
	<path fill-rule="evenodd" clip-rule="evenodd" fill="#8BC03F" d="M30.821,58.372c0.271-0.155,0.484-0.277,0.803-0.461
		c-1.665-0.522-2.033-0.398-2.401,0.694c0.585,0.118,1.167,0.233,1.877,0.376C30.937,58.625,30.866,58.471,30.821,58.372z"/>
	<path fill-rule="evenodd" clip-rule="evenodd" fill="#8BC03F" d="M28.013,56.17c0.232-1.214,0-1.659-0.676-1.543
		c0.124,0.265,0.249,0.525,0.365,0.789C27.811,55.667,27.909,55.919,28.013,56.17z"/>
	<path fill-rule="evenodd" clip-rule="evenodd" fill="#8BC03F" d="M27.241,59.676c0.049-0.055,0.099-0.108,0.147-0.163
		c-0.348-0.32-0.696-0.642-1.166-1.072C26.104,59.525,26.669,59.605,27.241,59.676z"/>
	<path fill-rule="evenodd" clip-rule="evenodd" fill="#8BC03F" d="M27.26,40.199c-0.386-0.445-0.772-0.89-1.158-1.334
		c-0.058,0.055-0.116,0.11-0.173,0.165c0.401,0.433,0.802,0.863,1.204,1.295C27.175,40.283,27.218,40.24,27.26,40.199z"/>
	<path fill-rule="evenodd" clip-rule="evenodd" fill="#8BC03F" d="M48.283,45.858c-0.056,0.249-0.142,0.489-0.152,0.733
		c-0.008,0.164,0.093,0.333,0.144,0.5c0.104-0.104,0.207-0.209,0.318-0.322c0.252,0.237,0.537,0.503,0.821,0.771
		C49.272,46.815,48.998,46.201,48.283,45.858z"/>
	<path fill-rule="evenodd" clip-rule="evenodd" fill="#8BC03F" d="M47.983,45.423c0.166-0.096,0.297-0.17,0.492-0.283
		c-1.021-0.319-1.246-0.244-1.472,0.426c0.358,0.072,0.716,0.143,1.15,0.231C48.054,45.579,48.01,45.484,47.983,45.423z"/>
	<path fill-rule="evenodd" clip-rule="evenodd" fill="#8BC03F" d="M46.5,35.955c-0.032-0.105-0.007-0.229-0.007-0.345
		c-0.056,0.001-0.111,0.002-0.168,0.004c0,0.379,0,0.757,0,1.177c0.072,0.201,0.164,0.472,0.268,0.737
		c0.017,0.043,0.075,0.094,0.117,0.097c0.053,0.002,0.122-0.03,0.156-0.069c0.189-0.213,0.062-0.978-0.154-1.179
		C46.604,36.276,46.546,36.105,46.5,35.955z"/>
	<path fill-rule="evenodd" clip-rule="evenodd" fill="#8BC03F" d="M46.5,37.841c-0.235,0.304-0.442,0.574-0.649,0.844
		c0.014,0.032,0.026,0.063,0.04,0.094c0.328-0.174,0.656-0.347,0.985-0.521C46.424,38.401,46.608,37.891,46.5,37.841z"/>
	<path fill-rule="evenodd" clip-rule="evenodd" fill="#8BC03F" d="M45.847,43.127c0.075,0.163,0.152,0.322,0.224,0.483
		c0.066,0.153,0.127,0.309,0.19,0.463C46.404,43.329,46.26,43.055,45.847,43.127z"/>
	<path fill-rule="evenodd" clip-rule="evenodd" fill="#8BC03F" d="M44.984,33.566c0.246,0.265,0.491,0.529,0.738,0.794
		c0.026-0.026,0.053-0.052,0.078-0.078c-0.237-0.272-0.474-0.545-0.71-0.817C45.055,33.499,45.019,33.532,44.984,33.566z"/>
	<path fill-rule="evenodd" clip-rule="evenodd" fill="#8BC03F" d="M49.416,45.654c-0.033-0.105-0.007-0.229-0.007-0.347
		c-0.056,0.002-0.111,0.004-0.168,0.005c0,0.379,0,0.757,0,1.177c0.072,0.202,0.164,0.472,0.267,0.737
		c0.018,0.044,0.076,0.095,0.117,0.098c0.053,0.002,0.122-0.03,0.157-0.069c0.189-0.213,0.061-0.978-0.155-1.179
		C49.518,45.974,49.461,45.802,49.416,45.654z"/>
	<path fill-rule="evenodd" clip-rule="evenodd" fill="#8BC03F" d="M49.414,47.54c-0.234,0.304-0.442,0.573-0.648,0.843
		c0.014,0.033,0.026,0.063,0.04,0.095c0.328-0.174,0.656-0.348,0.985-0.521C49.339,48.099,49.523,47.588,49.414,47.54z"/>
	<path fill-rule="evenodd" clip-rule="evenodd" fill="#8BC03F" d="M48.714,43.98c-0.236-0.272-0.473-0.545-0.71-0.817
		c-0.035,0.033-0.07,0.067-0.105,0.101c0.246,0.266,0.491,0.529,0.737,0.795C48.663,44.032,48.689,44.006,48.714,43.98z"/>
</g>
</svg>
