<?xml version="1.0" encoding="utf-8"?>
<!-- Generator: Adobe Illustrator 16.0.0, SVG Export Plug-In . SVG Version: 6.00 Build 0)  -->
<!DOCTYPE svg PUBLIC "-//W3C//DTD SVG 1.1//EN" "http://www.w3.org/Graphics/SVG/1.1/DTD/svg11.dtd">
<svg version="1.1" id="Layer_1" xmlns="http://www.w3.org/2000/svg" xmlns:xlink="http://www.w3.org/1999/xlink" x="0px" y="0px"
	 width="38px" height="38.638px" viewBox="0 0 38 38.638" enable-background="new 0 0 38 38.638" xml:space="preserve">
<g>
	<g>
		<path fill-rule="evenodd" clip-rule="evenodd" fill="#8BC03F" d="M11.954,35.416c-0.088-0.107-0.19-0.231-0.292-0.355
			c0.013-0.027,0.025-0.055,0.039-0.084c0.092,0.048,0.195,0.081,0.273,0.146c0.113,0.093,0.252,0.192,0.296,0.317
			c0.035,0.102-0.055,0.246-0.092,0.379c-0.422-0.187-0.742-0.097-0.947,0.236c-0.037,0.06-0.013,0.16-0.009,0.24
			c0.01,0.253,0.021,0.506,0.036,0.759c0.007,0.117,0.024,0.233,0.04,0.386c-0.327,0-0.651,0-0.976,0
			c-0.006-0.031-0.012-0.061-0.018-0.092c0.124-0.025,0.248-0.061,0.373-0.071c0.168-0.015,0.288-0.052,0.252-0.263
			c-0.006-0.039,0.051-0.089,0.08-0.134c0.029-0.046,0.093-0.108,0.081-0.134c-0.029-0.06-0.088-0.115-0.147-0.148
			c-0.111-0.061-0.231-0.105-0.349-0.156c0.016-0.031,0.031-0.063,0.046-0.094c0.097,0.037,0.193,0.074,0.392,0.15
			c-0.38-0.403,0.054-0.563,0.12-0.822C11.271,35.202,11.697,35.732,11.954,35.416z"/>
		<path fill-rule="evenodd" clip-rule="evenodd" fill="#8BC03F" d="M18.06,35.646c-0.368,0.283-0.582,0.573-0.418,1.026
			c0.068,0.188-0.129,0.338-0.336,0.275c-0.111-0.034-0.22-0.073-0.381-0.128c0.05,0.156,0.079,0.246,0.128,0.403
			c-0.087-0.053-0.143-0.067-0.147-0.093c-0.056-0.281-0.15-0.523-0.489-0.557c0.012-0.104-0.003-0.224,0.043-0.309
			c0.032-0.059,0.15-0.068,0.25-0.107c0.037,0.041,0.079,0.09,0.121,0.137c0.243,0.274,0.477,0.244,0.625-0.086
			c0.064-0.143,0.126-0.289,0.167-0.439C17.694,35.5,17.833,35.49,18.06,35.646z"/>
		<path fill-rule="evenodd" clip-rule="evenodd" fill="#8BC03F" d="M18.232,29.722c0.017,0.598,0.017,0.598,0.186,0.635
			c-0.066,0.173-0.16,0.419-0.253,0.665c-0.042-0.067-0.083-0.134-0.124-0.201c-0.208-0.094-0.417-0.188-0.625-0.282
			c0.376-0.056,0.514-0.229,0.453-0.6C17.816,29.625,18.026,29.654,18.232,29.722z"/>
		<path fill-rule="evenodd" clip-rule="evenodd" fill="#8BC03F" d="M14.507,33.458c-0.249-0.164-0.387-0.257-0.526-0.349
			c-0.002-0.033-0.005-0.065-0.007-0.099c0.163-0.004,0.334-0.033,0.485,0.007C14.5,33.029,14.487,33.25,14.507,33.458z"/>
		<path fill-rule="evenodd" clip-rule="evenodd" fill="#8BC03F" d="M17.343,32.319c0.3-0.087,0.599-0.173,0.899-0.26
			c0.015,0.044,0.029,0.089,0.044,0.133c-0.296,0.098-0.592,0.194-0.888,0.292C17.38,32.429,17.362,32.375,17.343,32.319z"/>
		<path fill-rule="evenodd" clip-rule="evenodd" fill="#8BC03F" d="M14.909,32.964c0.245,0.015,0.49,0.03,0.735,0.046
			c-0.005,0.046-0.01,0.091-0.015,0.136c-0.249,0.018-0.503,0.084-0.734-0.054C14.9,33.049,14.905,33.006,14.909,32.964z"/>
		<path fill-rule="evenodd" clip-rule="evenodd" fill="#8BC03F" d="M13.139,31.951c0.086-0.207,0.167-0.4,0.273-0.652
			c0.049,0.054,0.167,0.156,0.155,0.174C13.453,31.65,13.513,32,13.139,31.951z"/>
		<path fill-rule="evenodd" clip-rule="evenodd" fill="#8BC03F" d="M17.313,37.575c0.19,0.284,0.38,0.567,0.57,0.851
			c-0.033,0.022-0.065,0.044-0.098,0.066c-0.189-0.279-0.378-0.561-0.568-0.84C17.249,37.626,17.281,37.601,17.313,37.575z"/>
	</g>
	<path fill-rule="evenodd" clip-rule="evenodd" fill="#8BC03F" d="M31.869,31.158c0.033,0.024,0.068,0.051,0.102,0.076
		c0.127-0.145,0.245-0.298,0.346-0.467c-0.039,0.021-0.078,0.05-0.116,0.061C32.09,30.937,31.979,31.048,31.869,31.158z"/>
	<path fill-rule="evenodd" clip-rule="evenodd" fill="#8BC03F" d="M8.549,13.722c0.394,0.195,0.844-0.044,1.04-0.46
		c0.163-0.346,0.373-0.668,0.598-0.981c0.022-0.125,0.045-0.25,0.08-0.369c0.128-0.436,0.482-0.617,0.877-0.399
		c0.424,0.235,0.818,0.548,1.166,0.888c0.431,0.417,0.794,0.903,1.2,1.347c0.342,0.375,0.748,0.405,1.054,0.105
		c0.288-0.284,0.283-0.681-0.055-1.031c-0.683-0.705-1.274-1.465-1.341-2.484c-0.028-0.43,0.004-0.891,0.134-1.299
		c0.296-0.93,1.189-1.231,1.982-0.655c0.425,0.309,0.761,0.747,1.112,1.151c0.258-0.27,0.339-0.663,0.245-1.226
		c-0.143-0.855,0.425-0.782,0.987-0.598c0.082-0.559,0.365-0.93,0.962-1.169c0.345-0.139,0.706-0.247,1.071-0.321
		c0.585-0.12,1.166-0.266,1.742-0.44c-0.416-0.344-0.828-0.685-1.267-1.047c-0.04,0.154-0.082,0.303-0.176,0.657
		c-0.226-0.417-0.362-0.68-0.508-0.938c-0.167-0.296-0.312-0.616-0.519-0.878c-1.25,0.264-2.402,0.748-3.252,1.802
		c-0.061,0.076-0.238,0.105-0.348,0.085c-0.095-0.016-0.185-0.015-0.278-0.026c0.039,0.031,0.085,0.06,0.122,0.093
		c0.03,0.027-0.12,0.379-0.2,0.384c-0.256,0.017-0.52-0.057-0.821-0.103c0.031-0.147,0.058-0.273,0.085-0.402
		c-1.649,0.086-2.958,1.058-3.534,2.757c-0.151,0.442-0.323,0.65-0.826,0.757c-1.43,0.308-2.107,1.377-2.374,2.724
		c-0.061,0.308-0.087,0.616-0.108,0.923c0.241-0.491,0.585-0.902,0.898-0.97c-0.316,0.701-0.61,1.352-0.902,1.998
		c0.006,0.125,0.005,0.25,0.017,0.375C7.604,13.677,8.21,13.555,8.549,13.722z"/>
	<path fill-rule="evenodd" clip-rule="evenodd" fill="#8BC03F" d="M22.9,2.993c-0.074-0.032-0.189-0.082-0.325-0.141
		c-0.155,0.269-0.219,0.728-0.699,0.435c0.081-0.282,0.155-0.536,0.228-0.791c-0.24,0.135-0.484,0.264-0.737,0.373
		c-0.067,0.086-0.126,0.175-0.151,0.273c-0.07,0.258,0.174,0.601,0.294,0.95c-0.468,0.371-0.459-0.427-0.914-0.428
		c0.099,0.458,0.088,0.971,0.318,1.329c0.183,0.284,0.489,0.487,0.788,0.696c0.145-0.048,0.29-0.082,0.434-0.137
		c0-0.689,0-1.341,0-1.983c0.115-0.002,0.229-0.005,0.345-0.008c0,0.237-0.053,0.489,0.013,0.706
		c0.094,0.307,0.211,0.658,0.434,0.865c0.014,0.014,0.026,0.037,0.04,0.053c0.03-0.016,0.062-0.026,0.092-0.042
		c-0.009,0.044-0.019,0.083-0.028,0.125c0.375,0.54,0.567,1.877,0.214,2.276c-0.073,0.081-0.214,0.146-0.32,0.142
		c-0.085-0.005-0.207-0.109-0.241-0.198c-0.014-0.037-0.026-0.073-0.041-0.111c-0.041,0.457-0.043,0.914-0.012,1.371
		c0.059,0.213,0.202,0.369,0.631,0.233c-0.192,0.101-0.385,0.204-0.578,0.306c0.02,0.142,0.033,0.284,0.058,0.425
		c0.077,0.44,0.377,0.668,0.785,0.609c0.391-0.056,0.649-0.405,0.558-0.824c-0.314-1.449,0.213-2.571,1.33-3.456
		c0.882-0.699,1.791-1.367,2.948-1.538c0.958-0.142,1.534,0.333,1.533,1.305c-0.001,0.461-0.116,0.923-0.184,1.383
		c-0.021,0.146-0.066,0.288-0.085,0.433c-0.058,0.408,0.159,0.732,0.533,0.812c0.347,0.073,0.67-0.139,0.79-0.515
		c0.028-0.091,0.054-0.183,0.08-0.275c-0.397-0.022-0.795-0.056-1.191-0.131c0.411,0,0.821,0.008,1.232,0.011
		c0.023-0.072,0.045-0.145,0.076-0.212c0.476-1.039,1.554-1.282,2.351-0.467c0.146,0.15,0.268,0.329,0.395,0.501
		c0.231-0.028,0.469-0.057,0.687-0.081c-0.215-1.125-0.427-2.236-0.639-3.352c-0.526-0.198-1.106-0.302-1.749-0.288
		c-0.1,0.001-0.24-0.095-0.3-0.186c-0.882-1.339-2.163-1.833-3.696-1.665c-0.73,0.08-1.441,0.33-2.183,0.507
		c-0.022-0.078-0.053-0.205-0.094-0.33c-0.313-0.962-1.472-1.329-2.196-0.632c-0.017,0.015-0.035,0.026-0.051,0.042
		c-0.09,0.246-0.171,0.466-0.24,0.657C22.465,1.96,23.237,2.712,22.9,2.993z"/>
	<path fill-rule="evenodd" clip-rule="evenodd" fill="#8BC03F" d="M37.321,13.829c-0.116-0.188-0.125-0.307-0.003-0.494
		c0.471-0.725,0.693-1.529,0.681-2.393c-0.017-1.192-0.313-2.293-0.782-3.332c-0.571,0.045-1.15,0.091-1.748,0.138
		c0.115,0.206,0.227,0.407,0.49,0.88c-0.662-0.208-1.075-0.347-1.488-0.468c0.08,0.122,0.156,0.241,0.242,0.362
		c-0.448,0.19-0.806,0.301-1.123,0.483c-0.866,0.496-1.729,1.003-2.568,1.545c-0.448,0.29-0.51,0.724-0.232,1.061
		c0.256,0.312,0.666,0.32,1.066,0.011c0.971-0.748,2.029-1.332,3.185-1.733c0.526,0.926,0.204,2.042-0.699,2.483
		c-0.517,0.253-0.786,0.675-0.78,1.251c0.008,0.594,0.307,1.001,0.844,1.252c0.202,0.095,0.389,0.224,0.584,0.337
		c-0.02,0.052-0.039,0.102-0.058,0.153c-0.905-0.122-1.812-0.244-2.719-0.368c-0.131-0.018-0.262-0.051-0.394-0.068
		c-0.417-0.055-0.744,0.163-0.809,0.531c-0.066,0.388,0.131,0.718,0.551,0.794c0.801,0.146,1.609,0.25,2.415,0.372
		c0.061,0.009,0.122,0.017,0.198,0.027c-0.771,0.827-0.768,1.094-0.375,2.16c0.277,0.755,0.398,1.568,0.584,2.357
		c0.049,0.207-0.051,0.307-0.254,0.367c-0.985,0.295-1.932,0.217-2.831-0.28c-0.468-0.259-0.915-0.552-1.371-0.832
		c-0.435-0.266-0.823-0.216-1.055,0.141c-0.228,0.352-0.113,0.739,0.315,1.014c0.348,0.225,0.701,0.44,1.057,0.652
		c1.57,0.934,1.678,3.008,0.209,4.085c-0.107,0.079-0.221,0.147-0.313,0.21c-0.708-0.537-1.396-1.061-2.087-1.58
		c-0.128-0.097-0.264-0.186-0.407-0.256c-0.323-0.156-0.674-0.055-0.869,0.229c0.613,0.452,1.016,1.037,1.289,1.712
		c0.653,0.504,1.233,1.086,1.754,1.735c-0.055-0.459-0.027-0.872,0.139-1.121c0.488,1.357,0.938,2.604,1.385,3.848
		c-0.58-0.253-1.074-1.064-1.343-1.9c-0.021,0.045-0.039,0.091-0.067,0.133c-0.105,0.16-0.381,0.273-0.587,0.285
		c-0.285,0.018-0.581-0.068-0.866-0.129c-0.496-0.105-0.99-0.221-1.482-0.342c-0.686-0.17-1.295-0.482-1.834-0.945
		c-0.374-0.322-0.763-0.633-1.168-0.912c-0.354-0.244-0.731-0.162-0.955,0.152c-0.232,0.326-0.154,0.707,0.199,0.979
		c0.256,0.195,0.511,0.391,0.767,0.582c0.412,0.307,0.595,0.695,0.586,1.145c0.785,0,1.505,0,2.347,0
		c-1.023,0.586-1.823,0.691-2.388,0.313c-0.007,0.035-0.005,0.068-0.015,0.105c-0.166,0.648-0.599,1.052-1.225,1.217
		c0.303,0.139,0.604,0.289,0.858,0.495c0.104,0.085,0.017,0.409,0.017,0.645c-0.45-0.22-0.774-0.36-1.08-0.533
		c-0.135-0.077-0.33-0.231-0.32-0.334c0.006-0.062,0.056-0.142,0.111-0.214c-1.379,0.094-2.773-1.07-2.874-2.511
		c-0.024-0.358,0.004-0.721,0.019-1.081c0.015-0.433-0.203-0.733-0.579-0.777c-0.388-0.047-0.712,0.17-0.765,0.593
		c-0.061,0.5-0.056,1.01-0.081,1.571c-1.03-0.095-1.844,0.375-2.471,1.098c-0.017,0.018-0.035,0.033-0.051,0.052
		c0.194,0.29,0.388,0.581,0.583,0.87c-0.089,0.061-0.179,0.121-0.269,0.18c-0.182-0.268-0.365-0.538-0.547-0.807
		c-0.838,0.813-1.847,1.177-3.029,1.229c-0.907,0.04-1.813,0.134-2.719,0.2c-0.046,0.004-0.094-0.01-0.227-0.023
		c0.502-0.516,0.933-1.004,1.412-1.443c0.996-0.913,1.959-1.866,3.047-2.67c-0.209-0.121-0.344-0.164-0.357-0.227
		c-0.079-0.397-0.188-0.766-0.399-1.043c-0.622,0.617-1.272,1.213-1.953,1.783c-2.34,1.963-4.331,4.287-6.387,6.536
		c-0.174,0.19-0.299,0.259-0.528,0.104c-0.253-0.169-0.529-0.305-0.829-0.475c0.961-0.877,1.891-1.732,2.829-2.58
		c1.498-1.354,2.973-2.734,4.508-4.046c0.639-0.547,1.237-1.124,1.803-1.723c-0.116-0.041-0.242-0.075-0.389-0.089
		c0.031-0.288-0.01-0.615,0.119-0.85c0.088-0.159,0.414-0.189,0.688-0.297c0.1,0.114,0.215,0.247,0.332,0.379
		c0.003,0.004,0.006,0.006,0.009,0.01c1.526-1.784,2.771-3.772,3.753-5.962c0.732-1.631,1.487-3.258,2.329-4.834
		c0.576-1.079,1.311-2.075,1.997-3.091c0.296-0.439,0.315-0.838-0.021-1.098c-0.317-0.246-0.729-0.155-1.043,0.229
		c-1.502,1.84-2.532,3.953-3.525,6.087c-0.394,0.848-0.792,1.693-1.189,2.54c-0.056,0.116-0.122,0.227-0.216,0.4
		c-0.233-1.224-0.64-2.301-1.307-3.272c-0.083-0.121-0.166-0.244-0.259-0.357c-0.274-0.337-0.682-0.41-0.989-0.186
		c-0.32,0.235-0.365,0.625-0.113,0.995c0.112,0.167,0.238,0.324,0.343,0.494c0.703,1.141,1.12,2.366,1.02,3.723
		c-0.077,1.036-0.51,1.948-1.186,2.708c-0.879,0.987-1.795,1.947-2.756,2.854c-1.916,1.805-3.874,3.566-5.817,5.348
		c-0.175-0.107-0.328-0.211-0.49-0.299c-0.313-0.173-0.421-0.436-0.353-0.774c0.073-0.358,0.326-0.378,0.639-0.361
		c0.952,0.05,1.629-0.755,1.431-1.672c-0.086-0.399,0.011-0.51,0.428-0.481c0.146,0.008,0.295,0.039,0.438,0.022
		c0.827-0.097,1.362-0.86,1.183-1.677c-0.02-0.09-0.036-0.181-0.057-0.287c0.333-0.033,0.65-0.07,0.969-0.092
		c0.73-0.053,1.219-0.401,1.391-1.005c0.176-0.62-0.042-1.147-0.65-1.578c-1.014-0.718-1.142-2.06-0.275-2.881
		c0.691-0.657,1.896-0.58,2.499,0.159c0.288,0.354,0.657,0.422,0.981,0.184c0.301-0.223,0.363-0.605,0.141-0.966
		c-0.112-0.182-0.241-0.354-0.378-0.518c-1.713-2.034-2.433-4.422-2.558-7.017c-0.115,0.204-0.286,0.368-0.606,0.664
		c-0.497,0.461-1.491,0.78-1.838,0.588c-0.079,0.001-0.156,0.002-0.234,0.003c0.076,0.583,0.183,1.165,0.322,1.742
		c0.025,0.104,0.061,0.206,0.088,0.31c0.196-0.12,0.391-0.238,0.608-0.371c0.152,0.15,0.238,0.352,0.272,0.575
		c0.587,0.038,1.174,0.075,1.761,0.113c-0.014,0.125-0.027,0.249-0.041,0.375c-0.582,0.039-1.175,0.173-1.73-0.02
		c-0.031,0.151-0.083,0.305-0.165,0.458c-0.143-0.051-0.283-0.1-0.425-0.151c0.122,0.385,0.248,0.77,0.366,1.158
		c-2.057,1.356-2.833,3.206-2.094,5.648c-0.83,0.065-1.169,0.639-1.406,1.313c-0.053,0.15-0.116,0.308-0.12,0.464
		c-0.006,0.337-0.198,0.481-0.485,0.587c-0.602,0.221-0.958,0.635-1.038,1.298c-0.023,0.192-0.169,0.451-0.332,0.532
		c-0.923,0.452-1.437,1.221-1.727,2.156c-0.283,0.914-0.101,1.794,0.345,2.651c-0.33,0.251-0.646,0.494-0.963,0.735
		c-1.004,0.764-0.933,1.871,0.166,2.49c1.07,0.604,2.146,1.199,3.219,1.795c1.009,0.561,1.469,0.537,2.356-0.215
		c0.394-0.334,0.747-0.728,1.07-1.133c0.816-1.02,1.819-1.67,3.155-1.751c0.946-0.058,1.893-0.132,2.837-0.219
		c1.621-0.147,3.077-0.67,4.194-1.919c0.179-0.199,0.334-0.42,0.5-0.631c0.06,0.001,0.12,0.002,0.179,0.003
		c0.081,0.124,0.135,0.286,0.247,0.367c0.625,0.452,1.219,0.978,1.905,1.308c2.676,1.283,5.321,0.148,6.37-1.912
		c0.044-0.086,0.255-0.146,0.372-0.127c0.474,0.08,0.936,0.22,1.41,0.293c1.263,0.199,2.363-0.166,3.11-0.893
		c-0.111-0.205-0.217-0.409-0.309-0.617c-0.222-0.505,0.346-1.371,0.921-1.557c0.156-0.05,0.287-0.133,0.393-0.24
		c0.006-0.238-0.002-0.482-0.039-0.735c-0.021-0.149,0.054-0.358,0.156-0.474c0.041-0.045,0.075-0.094,0.114-0.139
		c-0.251-0.739-0.386-1.516-0.462-2.3c0.588,0.853,0.84,1.229,0.941,1.645c0.24-0.388,0.428-0.802,0.526-1.259
		c0.097-0.452,0.11-0.922,0.163-1.413c0.078-0.019,0.185-0.032,0.281-0.072c0.649-0.269,1.314-0.51,1.941-0.823
		c0.459-0.231,0.659-0.672,0.688-1.193c0.063-1.185-0.028-2.352-0.405-3.482c-0.077-0.23-0.008-0.357,0.146-0.517
		C38.057,16.993,38.236,15.315,37.321,13.829z"/>
	<path fill-rule="evenodd" clip-rule="evenodd" fill="#8BC03F" d="M36.016,5.54c-0.343-0.458-0.731-0.842-1.168-1.144
		c0.011,0.199,0.037,0.389,0.125,0.546C35.135,5.232,35.587,5.362,36.016,5.54z"/>
	<path fill-rule="evenodd" clip-rule="evenodd" fill="#8BC03F" d="M34.853,6.136c0.577,0.386,1.094,0.942,1.708,1.085
		c0.159,0.038,0.324,0.051,0.493,0.05c-0.231-0.47-0.493-0.93-0.783-1.377c-0.017-0.026-0.036-0.049-0.054-0.075
		C36.011,6.376,35.297,5.708,34.853,6.136z"/>
	<path fill-rule="evenodd" clip-rule="evenodd" fill="#8BC03F" d="M26.354,14.139c1.049-0.661,1.922-1.513,2.691-2.466
		c0.037-0.542,0.277-0.893,0.731-1.041c0.099-0.295,0.017-0.583-0.239-0.767c-0.318-0.23-0.721-0.174-0.979,0.202
		c-0.992,1.453-2.313,2.54-3.766,3.497c-2.041,1.345-3.647,3.124-5.002,5.14c-0.507,0.753-1.026,1.502-1.487,2.285
		c-0.566,0.961-1.197,1.867-1.856,2.748c0.192-0.025,0.428,0.07,0.718,0.271c-1.012,0.777-1.6,1.574-1.15,2.82
		c0.047,0.131,0.048,0.254,0.013,0.363c0.261-0.214,0.506-0.455,0.749-0.688c0.909-0.869,1.915-1.523,3.023-1.953
		c-0.061-0.205-0.082-0.471-0.043-0.822c0.245,0.227,0.459,0.424,0.662,0.61c0.578-0.174,1.18-0.296,1.814-0.35
		c0.17-0.015,0.355-0.034,0.503-0.109c0.315-0.159,0.411-0.444,0.331-0.78c-0.079-0.327-0.391-0.557-0.773-0.484
		c-0.967,0.182-1.927,0.407-2.888,0.62c-0.113,0.024-0.218,0.081-0.384,0.044c0.428-0.346,0.837-0.717,1.287-1.031
		c1.196-0.838,2.566-1.299,3.938-1.752c1.482-0.49,2.97-0.968,4.453-1.454c0.51-0.167,0.719-0.52,0.564-0.929
		c-0.148-0.39-0.49-0.541-0.96-0.377c-2.058,0.716-4.176,1.269-6.201,2.076c0.012,0.284-0.019,0.634-0.103,1.071
		c-0.119-0.293-0.236-0.587-0.361-0.877c-0.467,0.197-0.93,0.404-1.383,0.637c-0.008,0.004-0.023-0.005-0.074-0.018
		c0.052-0.091,0.096-0.177,0.146-0.259c0.277-0.451,0.572-0.884,0.876-1.308c-0.017-0.038-0.034-0.074-0.052-0.111
		c0.051-0.009,0.093-0.007,0.14-0.01C22.672,17.042,24.326,15.415,26.354,14.139z"/>
	<path fill-rule="evenodd" clip-rule="evenodd" fill="#8BC03F" d="M14.042,27.236c0.131,0.412,0.21,0.66,0.336,1.057
		c0.331-0.242,0.677-0.464,1.036-0.673c-0.104,0.007-0.213,0.002-0.325-0.032C14.785,27.496,14.487,27.386,14.042,27.236z"/>
	<path fill-rule="evenodd" clip-rule="evenodd" fill="#8BC03F" d="M18.505,10.932c0.299-0.299,0.277-0.694-0.095-1.056
		c-0.108-0.106-0.202-0.218-0.291-0.331c-0.146,0.385-0.335,0.88-0.534,1.4C17.894,11.187,18.253,11.185,18.505,10.932z"/>
	<path fill-rule="evenodd" clip-rule="evenodd" fill="#8BC03F" d="M17.674,8.664c0.037,0.616,0.112,0.707,0.363,0.771
		C17.87,9.199,17.748,8.943,17.674,8.664z"/>
	<path fill-rule="evenodd" clip-rule="evenodd" fill="#8BC03F" d="M15.951,24.375c-0.507,0.639-1.04,1.258-1.599,1.854
		c0.451,0.19,0.859-0.029,1.149-0.674C15.674,25.169,15.839,24.779,15.951,24.375z"/>
	<path fill-rule="evenodd" clip-rule="evenodd" fill="#8BC03F" d="M21.84,6.145c0.055-0.078,0.109-0.155,0.164-0.233
		c-0.096-0.077-0.199-0.151-0.303-0.223c-0.1,0.033-0.199,0.064-0.299,0.094C21.545,5.901,21.696,6.026,21.84,6.145z"/>
	<path fill-rule="evenodd" clip-rule="evenodd" fill="#8BC03F" d="M18.692,3.107c-0.41-0.357-0.786-0.753-1.177-1.132
		c0.397,0.564,0.909,1.013,1.361,1.516c0.022,0.025,0.036,0.059,0.057,0.085c0.09-0.019,0.18-0.039,0.27-0.055
		C19.032,3.387,18.859,3.252,18.692,3.107z"/>
	<path fill-rule="evenodd" clip-rule="evenodd" fill="#8BC03F" d="M6.866,9.071C6.701,9.227,6.638,9.49,6.529,9.706
		c0.203-0.004,0.405-0.008,0.624-0.013c0.024,0.477,0.05,1.015,0.076,1.553c0.556-0.856,0.875-1.729,0.496-2.755
		C7.428,8.685,7.111,8.84,6.866,9.071z"/>
	<path fill-rule="evenodd" clip-rule="evenodd" fill="#8BC03F" d="M8.464,16.985c0.094,0.056,0.19,0.097,0.288,0.13
		c0.034-0.164,0.032-0.319,0.009-0.468c-0.086-0.005-0.173-0.011-0.26-0.017C8.489,16.749,8.477,16.866,8.464,16.985z"/>
	<path fill-rule="evenodd" clip-rule="evenodd" fill="#8BC03F" d="M6.967,16.999c0.372,0.132,0.78,0.276,1.195,0.423
		c-0.103-0.324-0.194-0.651-0.281-0.979C7.541,16.65,7.224,16.842,6.967,16.999z"/>
	<path fill-rule="evenodd" clip-rule="evenodd" fill="#8BC03F" d="M5.897,18.334c0.574-0.12,1.148-0.24,1.722-0.358
		c-0.006-0.066-0.014-0.131-0.02-0.197c-0.365-0.102-0.725-0.262-1.095-0.294C5.926,17.437,5.684,17.798,5.897,18.334z"/>
	<path fill-rule="evenodd" clip-rule="evenodd" fill="#8BC03F" d="M15.064,3.727c0.431,0.631,0.927,0.024,1.44,0.14
		C15.998,3.253,15.52,3.225,15.064,3.727z"/>
	<path fill-rule="evenodd" clip-rule="evenodd" fill="#8BC03F" d="M5.476,11.585C5,11.125,4.61,10.746,4.152,10.302
		C4.081,10.917,4.535,11.346,5.476,11.585z"/>
	<path fill-rule="evenodd" clip-rule="evenodd" fill="#8BC03F" d="M2.565,10.558c-0.053,0.045-0.031,0.211-0.002,0.313
		c0.066,0.228,0.158,0.448,0.273,0.767c0.111-0.114,0.307-0.23,0.295-0.321c-0.034-0.275-0.138-0.544-0.245-0.803
		C2.874,10.484,2.639,10.496,2.565,10.558z"/>
	<path fill-rule="evenodd" clip-rule="evenodd" fill="#8BC03F" d="M17.577,0c-0.202,0.042-0.392,0.082-0.775,0.161
		c0.389,0.314,0.635,0.511,0.826,0.666C17.61,0.541,17.594,0.284,17.577,0z"/>
</g>
</svg>
