<?xml version="1.0" encoding="utf-8"?>
<!-- Generator: Adobe Illustrator 16.0.0, SVG Export Plug-In . SVG Version: 6.00 Build 0)  -->
<!DOCTYPE svg PUBLIC "-//W3C//DTD SVG 1.1//EN" "http://www.w3.org/Graphics/SVG/1.1/DTD/svg11.dtd">
<svg version="1.1" id="Layer_1" xmlns="http://www.w3.org/2000/svg" xmlns:xlink="http://www.w3.org/1999/xlink" x="0px" y="0px"
	 width="40.189px" height="43.416px" viewBox="0 0 40.189 43.416" enable-background="new 0 0 40.189 43.416" xml:space="preserve">
<g>
	<path fill="#E35028" d="M15.407,6.22c0.04,0.091,0.187,0.22,0.244,0.201c0.109-0.033,0.259-0.151,0.271-0.249
		c0.099-0.81-0.205-1.502-0.67-2.23c-0.123,0.478-0.505,0.797-0.236,1.281C15.186,5.531,15.264,5.893,15.407,6.22z"/>
	<path fill="#E35028" d="M23.878,9.649c0.145-0.379,0.288-0.758,0.39-1.024c-0.261-0.056-0.261-0.056-0.287-0.978
		c-0.316-0.105-0.64-0.151-0.56,0.332c0.096,0.571-0.117,0.839-0.697,0.927c0.32,0.145,0.642,0.289,0.963,0.434
		C23.75,9.443,23.814,9.547,23.878,9.649z"/>
	<path fill="#E35028" d="M27.277,16.735c0.411,0.082,0.82,0.165,1.319,0.265c-0.114-0.251-0.164-0.358-0.196-0.428
		c0.191-0.11,0.34-0.196,0.565-0.324C27.794,15.881,27.535,15.967,27.277,16.735z"/>
	<path fill="#E35028" d="M26.941,7.63c0.061,0.003,0.139-0.033,0.18-0.079c0.217-0.244,0.07-1.121-0.178-1.352
		c-0.125-0.116-0.189-0.313-0.242-0.484c-0.037-0.122-0.008-0.264-0.008-0.396C26.628,5.32,26.564,5.322,26.5,5.324
		c0,0.434,0,0.868,0,1.349c0.084,0.231,0.189,0.542,0.308,0.846C26.826,7.568,26.894,7.627,26.941,7.63z"/>
	<path fill="#E35028" d="M27.13,8.355c-0.517,0.164-0.307-0.422-0.432-0.479c-0.27,0.35-0.506,0.659-0.743,0.968
		c0.015,0.036,0.03,0.073,0.046,0.107C26.377,8.754,26.753,8.555,27.13,8.355z"/>
	<path fill="#E35028" d="M24.064,11.452c-0.021-0.068-0.045-0.137-0.066-0.205c-0.462,0.135-0.924,0.268-1.385,0.401
		c0.028,0.084,0.057,0.17,0.085,0.254C23.154,11.752,23.609,11.603,24.064,11.452z"/>
	<path fill="#E35028" d="M19.971,12.924c0.007-0.07,0.015-0.141,0.023-0.21c-0.377-0.024-0.755-0.048-1.132-0.072
		c-0.007,0.065-0.015,0.132-0.021,0.198C19.196,13.05,19.588,12.949,19.971,12.924z"/>
	<path fill="#E35028" d="M9.639,23.044c0.004,0.052,0.007,0.102,0.011,0.153c0.214,0.142,0.428,0.283,0.811,0.536
		c-0.031-0.32-0.009-0.66-0.074-0.678C10.153,22.993,9.89,23.039,9.639,23.044z"/>
	<path fill="#E35028" d="M11.06,23.17c0.355,0.21,0.748,0.109,1.13,0.084c0.007-0.07,0.015-0.141,0.023-0.21
		c-0.377-0.024-0.755-0.048-1.132-0.072C11.074,23.037,11.066,23.104,11.06,23.17z"/>
	<path fill="#E35028" d="M0.862,29.643C0.533,29.783,0.276,30.092,0,30.317c0.323,0.133,0.646,0.355,0.981,0.376
		c0.277,0.018,0.627-0.144,0.829-0.344c0.11-0.109,0.047-0.631-0.058-0.673C1.488,29.569,1.116,29.533,0.862,29.643z"/>
	<path fill="#E35028" d="M3.274,34.769c0.627,0.675,1.254,1.35,1.881,2.024c0.067-0.066,0.134-0.133,0.201-0.199
		c-0.604-0.694-1.207-1.389-1.811-2.083C3.455,34.596,3.364,34.683,3.274,34.769z"/>
	<path fill="#E35028" d="M13.015,43.416c0.917-0.083,1.497-0.137,1.949-0.178c-0.391-0.357-0.742-0.677-1.129-1.029
		C13.62,42.524,13.42,42.818,13.015,43.416z"/>
	<path fill="#E35028" d="M15.245,22.124c0.346-0.113,0.693-0.228,1.039-0.342c-0.022-0.068-0.045-0.137-0.067-0.205
		c-0.338,0.099-0.677,0.196-1.015,0.294l-0.695-3.999c-0.069-0.4-0.293-0.734-0.598-0.956c0.22-0.03,0.465,0,0.746,0.124
		c0.057-0.205,0.196-0.429,0.142-0.584c-0.068-0.193-0.282-0.347-0.457-0.49c-0.121-0.099-0.279-0.149-0.421-0.223
		c-0.02,0.043-0.04,0.086-0.06,0.129c0.157,0.19,0.313,0.381,0.45,0.548c-0.352,0.435-0.91-0.16-1.158,0.22
		c-0.125-0.011-0.25-0.011-0.379,0.012c-0.816,0.143-1.363,0.918-1.221,1.734l2.526,14.533c0.142,0.816,0.918,1.362,1.735,1.221
		c0.816-0.143,1.363-0.919,1.221-1.734L15.245,22.124z"/>
	<path fill="#E35028" d="M31.696,34.834c-0.143,0.109,0.253,1.356,0.429,1.363c0.635,0.028,1.281-0.254,2.143-0.475
		c-0.225-0.877-0.358-1.401-0.492-1.925C33.068,34.124,32.299,34.37,31.696,34.834z"/>
	<path fill="#E35028" d="M39.365,6.225c0.095-0.47,0.205-0.937,0.316-1.403c0.183-0.768,0.372-1.561,0.488-2.359
		c0.071-0.479-0.048-1.523-0.526-1.811l-0.085-0.043c-0.586-0.234-1.461,0.01-1.936,0.368c-0.845,0.64-1.654,1.345-2.438,2.026
		c-0.411,0.358-0.822,0.717-1.239,1.066c-0.167,0.141-0.308,0.227-0.38,0.258c-1.369-0.553-1.945,0.453-2.385,1.221L30.994,5.88
		c-0.252,0.451-0.49,0.877-0.788,1.254c-0.143,0.182-0.432,0.346-0.618,0.355c-1.404,0.061-2.48,0.693-3.195,1.881l-3.558,5.909
		c-0.472,0.783-0.942,1.566-1.413,2.35c-0.078,0.024-0.145,0.052-0.172,0.1c-0.043,0.08-0.052,0.179-0.056,0.279
		c-0.572,0.951-1.144,1.901-1.715,2.853l0.732,4.373c0.613-1.02,1.227-2.039,1.84-3.059l0.908-1.51
		c0.112,0.164,0.223,0.329,0.335,0.493c0.05-0.033,0.101-0.067,0.15-0.101c-0.126-0.189-0.253-0.378-0.38-0.567l0.361-0.599
		l1.406-2.338c0.115-0.19,0.229-0.38,0.344-0.57c0.069,0.414,0.385,0.465,0.709,0.505c0.034-0.038,0.068-0.076,0.104-0.115
		c-0.204-0.188-0.42-0.386-0.674-0.62c0.361-0.6,0.723-1.198,1.084-1.798c0.009,0.023,0.019,0.046,0.028,0.069
		c0.011-0.057,0.009-0.092,0.017-0.144c0.752-1.251,1.504-2.502,2.26-3.751c0.52-0.859,0.709-0.908,1.559-0.402
		c0.137,0.081,0.271,0.162,0.406,0.243c0.319-0.659,0.638-1.318,0.957-1.977c0.134,0.93,0.268,1.859,0.402,2.79
		c0.213,0.128,0.427,0.254,0.641,0.383c0.781,0.47,1.561,0.941,2.339,1.416c0.827,0.505,0.874,0.71,0.355,1.572
		c-0.958,1.595-1.919,3.188-2.878,4.781c-0.008,0.443-0.016,0.907-0.025,1.419c-0.258-0.132-0.451-0.247-0.611-0.361
		c-2.326,3.866-4.651,7.733-6.98,11.599c-0.55,0.912-0.733,0.959-1.637,0.421c-0.625-0.373-1.248-0.752-1.872-1.127
		c-0.266-1.536-0.532-3.072-0.799-4.608c0.087,0.018,0.164,0.033,0.256,0.052c-0.114-0.251-0.164-0.358-0.196-0.428
		c0.191-0.11,0.339-0.196,0.565-0.324c-0.326-0.103-0.576-0.165-0.78-0.192c-0.002-0.013-0.004-0.026-0.007-0.039l-0.526-3.025
		c-0.162-0.93-0.319-1.86-0.477-2.791c-0.095-0.564-0.197-1.142-0.294-1.713c0.083-0.044,0.167-0.088,0.25-0.132
		c-0.134,0.043-0.218,0.033-0.273-0.003c-0.074-0.436-0.147-0.867-0.224-1.305c0.054,0.151,0.112,0.311,0.174,0.471
		c0.019,0.05,0.087,0.108,0.134,0.111c0.06,0.003,0.139-0.033,0.18-0.079c0.216-0.244,0.069-1.121-0.178-1.352
		c-0.125-0.116-0.19-0.313-0.243-0.484c-0.037-0.122-0.007-0.264-0.007-0.396c-0.064,0.002-0.129,0.004-0.194,0.006
		c0,0.313,0,0.633,0,0.964c-0.198-1.107-0.407-2.217-0.63-3.316c0.05,0.033,0.097,0.064,0.153,0.102
		c-0.031-0.32-0.009-0.66-0.074-0.678c-0.067-0.018-0.14-0.015-0.211-0.018c-0.204-0.711-0.646-1.623-1.282-2.042
		c0.033-0.115,0.062-0.232,0.119-0.322c0.019-0.028-0.163-0.186-0.238-0.269c-0.065,0.156-0.122,0.291-0.178,0.426
		c-1.028-0.455-1.14-1.187-1.294-2.249l-0.038-0.284c-0.042-0.35-0.087-0.709-0.223-1.053c-0.131-0.331-0.49-1.101-0.995-1.1
		c-0.65,0.002-0.853-0.354-1.154-0.984c-0.069-0.146-0.139-0.291-0.216-0.428c-0.235-0.417-0.457-0.842-0.679-1.268
		c-0.364-0.699-0.742-1.424-1.176-2.104C10.344,0.624,9.57-0.087,9.02,0.009L8.927,0.032C8.332,0.239,7.829,0.995,7.705,1.578
		C7.486,2.614,7.335,3.677,7.19,4.705c-0.076,0.54-0.152,1.08-0.238,1.618C6.917,6.538,6.868,6.694,6.833,6.767
		C5.437,7.244,5.66,8.384,5.83,9.251l0.076,0.373c0.104,0.506,0.203,0.983,0.226,1.463c0.011,0.23-0.1,0.545-0.235,0.674
		c-1.022,0.966-1.42,2.148-1.183,3.515l0.003,0.018c0.886,1.166,1.79,2.354,2.748,3.615c-0.191,0.257-0.497,0.669-0.803,1.081
		c-0.4-0.366-0.771-0.771-1.205-1.091c-0.052-0.038-0.087-0.086-0.136-0.126l0.573,3.299c0.249,1.432,0.5,2.864,0.749,4.297
		c-0.029-0.023-0.058-0.05-0.085-0.072c-0.121-0.099-0.279-0.149-0.421-0.223c-0.02,0.043-0.04,0.086-0.06,0.129
		c0.157,0.19,0.313,0.381,0.45,0.548c-0.395,0.487-1.053-0.33-1.237,0.4c-0.101,0.399-0.769,0.645-0.183,1.267
		c-0.307-0.118-0.456-0.176-0.604-0.232c-0.023,0.048-0.047,0.096-0.07,0.145c0.18,0.078,0.366,0.147,0.537,0.242
		c0.092,0.051,0.182,0.136,0.227,0.228c0.019,0.039-0.08,0.135-0.125,0.206c-0.043,0.07-0.132,0.146-0.122,0.208
		c0.054,0.324-0.13,0.381-0.39,0.403c-0.193,0.015-0.383,0.071-0.574,0.11c0.009,0.047,0.018,0.093,0.027,0.141
		c0.5,0,0.999,0,1.503,0c-0.025-0.233-0.051-0.413-0.062-0.595c-0.023-0.39-0.041-0.778-0.056-1.168
		c-0.005-0.125-0.042-0.279,0.014-0.37c0.307-0.497,0.781-0.635,1.402-0.382c0.5,2.873,0.997,5.746,1.501,8.619
		c0.393,2.233,2.115,3.433,4.387,3.057c0.858-0.143,1.715-0.289,2.571-0.438c0.995-0.173,1.989-0.35,2.982-0.525l0.124-0.021
		c1.011-0.18,1.79-0.576,2.345-1.14c-0.047-0.25-0.095-0.502-0.143-0.751c0.123-0.058,0.248-0.116,0.371-0.174
		c0.066,0.13,0.131,0.261,0.195,0.392c0.4-0.638,0.592-1.422,0.531-2.343l0.262,1.564c0.465,0.264,0.92,0.429,1.363,0.528
		c0.042-0.133,0.078-0.253,0.134-0.403c0.073,0.165,0.144,0.319,0.208,0.466c1.438,0.188,2.718-0.494,3.649-2.036
		c1.175-1.945,2.347-3.892,3.518-5.84c-0.247-0.19-0.5-0.371-0.742-0.567c-0.2-0.163-0.094-0.707-0.13-1.075
		c0.643-0.031,1.293-0.123,1.928-0.112l0.708-1.176c0.486-0.81,0.978-1.616,1.468-2.423c1.299-2.135,2.643-4.344,3.889-6.563
		c0.4-0.715,0.845-2.088,0.422-2.936c-0.523-1.052-0.119-1.683,0.471-2.604l0.158-0.24c0.195-0.291,0.398-0.593,0.521-0.941
		c0.117-0.336,0.35-1.152-0.033-1.482c-0.492-0.424-0.412-0.826-0.227-1.5C39.291,6.534,39.333,6.379,39.365,6.225z M22.253,21.327
		c-0.174-0.167-0.514-0.361-0.49-0.495c0.056-0.332,0.277-0.637,0.547-1.188c0.049,0.071,0.097,0.132,0.144,0.193
		c-0.012,0.01-0.024,0.02-0.036,0.029c0.131,0.193,0.264,0.388,0.395,0.582C22.693,20.765,22.449,21.037,22.253,21.327z
		 M12.177,8.852l0.221,1.271L9.077,10.7L8.856,9.429L12.177,8.852z M9.399,2.726l2.117,3.242L8.501,6.491L9.399,2.726z
		 M17.806,35.215c-1.782,0.317-3.565,0.628-5.352,0.931c-1.03,0.174-1.17,0.07-1.358-1.002c-0.307-1.752-0.611-3.505-0.915-5.257
		c-0.208,0.055-0.436,0.114-0.708,0.188c0.188-0.518,0.344-0.966,0.499-1.39c-0.051-0.296-0.104-0.593-0.155-0.89l-0.456-2.625
		l-0.468-2.689c-0.066-0.378-0.131-0.757-0.197-1.135c0.2-0.144,0.189-0.476,0.316-0.673c0.019-0.028-0.163-0.186-0.238-0.269
		c-0.063,0.149-0.117,0.278-0.17,0.407c-0.237-1.359-0.472-2.719-0.707-4.078c0.105-0.042,0.232-0.143,0.243-0.232
		c0.092-0.755-0.173-1.408-0.585-2.084c0.033-0.406,0.286-0.528,0.973-0.651c0.919-0.164,1.839-0.327,2.76-0.487
		c0.898-0.155,1.797-0.31,2.696-0.46c0.956-0.161,1.125-0.037,1.299,0.955c0.241,1.384,0.48,2.768,0.722,4.152
		c-0.237-0.047-0.427,0.002-0.363,0.383c0.096,0.571-0.117,0.839-0.697,0.927c0.321,0.145,0.642,0.289,0.962,0.434
		c0.064,0.104,0.127,0.207,0.191,0.31c0.062-0.162,0.123-0.321,0.181-0.476c0.443,2.55,0.887,5.099,1.329,7.648
		c-0.073-0.067-0.138-0.127-0.22-0.203c-0.055,0.5,0.098,0.694,0.321,0.784c0.353,2.031,0.708,4.062,1.059,6.092
		C18.948,34.874,18.841,35.03,17.806,35.215z M35.574,10.509L32.685,8.77l0.666-1.105l2.889,1.739L35.574,10.509z M37.627,6.79
		l-2.622-1.578l3.146-2.258L37.627,6.79z"/>
	<path fill="#E35028" d="M22.427,30.894c0.709,0.428,1.631,0.198,2.058-0.512l7.606-12.637c0.428-0.711,0.199-1.631-0.512-2.059
		c-0.709-0.428-1.631-0.198-2.058,0.512l-7.606,12.637C21.488,29.546,21.716,30.466,22.427,30.894z"/>
</g>
</svg>
